G75*
%MOIN*%
%OFA0B0*%
%FSLAX25Y25*%
%IPPOS*%
%LPD*%
%AMOC8*
5,1,8,0,0,1.08239X$1,22.5*
%
%ADD10C,0.00000*%
%ADD11OC8,0.06000*%
%ADD12C,0.06000*%
%ADD13C,0.07400*%
%ADD14C,0.13800*%
%ADD15OC8,0.07000*%
%ADD16C,0.17000*%
%ADD17C,0.08674*%
%ADD18R,0.06300X0.06300*%
%ADD19C,0.06300*%
%ADD20C,0.06800*%
%ADD21C,0.05550*%
D10*
X0001800Y0001800D02*
X0001800Y0315501D01*
X0226721Y0315501D01*
X0226721Y0001800D01*
X0001800Y0001800D01*
X0096300Y0046800D02*
X0096302Y0046961D01*
X0096308Y0047121D01*
X0096318Y0047282D01*
X0096332Y0047442D01*
X0096350Y0047602D01*
X0096371Y0047761D01*
X0096397Y0047920D01*
X0096427Y0048078D01*
X0096460Y0048235D01*
X0096498Y0048392D01*
X0096539Y0048547D01*
X0096584Y0048701D01*
X0096633Y0048854D01*
X0096686Y0049006D01*
X0096742Y0049157D01*
X0096803Y0049306D01*
X0096866Y0049454D01*
X0096934Y0049600D01*
X0097005Y0049744D01*
X0097079Y0049886D01*
X0097157Y0050027D01*
X0097239Y0050165D01*
X0097324Y0050302D01*
X0097412Y0050436D01*
X0097504Y0050568D01*
X0097599Y0050698D01*
X0097697Y0050826D01*
X0097798Y0050951D01*
X0097902Y0051073D01*
X0098009Y0051193D01*
X0098119Y0051310D01*
X0098232Y0051425D01*
X0098348Y0051536D01*
X0098467Y0051645D01*
X0098588Y0051750D01*
X0098712Y0051853D01*
X0098838Y0051953D01*
X0098966Y0052049D01*
X0099097Y0052142D01*
X0099231Y0052232D01*
X0099366Y0052319D01*
X0099504Y0052402D01*
X0099643Y0052482D01*
X0099785Y0052558D01*
X0099928Y0052631D01*
X0100073Y0052700D01*
X0100220Y0052766D01*
X0100368Y0052828D01*
X0100518Y0052886D01*
X0100669Y0052941D01*
X0100822Y0052992D01*
X0100976Y0053039D01*
X0101131Y0053082D01*
X0101287Y0053121D01*
X0101443Y0053157D01*
X0101601Y0053188D01*
X0101759Y0053216D01*
X0101918Y0053240D01*
X0102078Y0053260D01*
X0102238Y0053276D01*
X0102398Y0053288D01*
X0102559Y0053296D01*
X0102720Y0053300D01*
X0102880Y0053300D01*
X0103041Y0053296D01*
X0103202Y0053288D01*
X0103362Y0053276D01*
X0103522Y0053260D01*
X0103682Y0053240D01*
X0103841Y0053216D01*
X0103999Y0053188D01*
X0104157Y0053157D01*
X0104313Y0053121D01*
X0104469Y0053082D01*
X0104624Y0053039D01*
X0104778Y0052992D01*
X0104931Y0052941D01*
X0105082Y0052886D01*
X0105232Y0052828D01*
X0105380Y0052766D01*
X0105527Y0052700D01*
X0105672Y0052631D01*
X0105815Y0052558D01*
X0105957Y0052482D01*
X0106096Y0052402D01*
X0106234Y0052319D01*
X0106369Y0052232D01*
X0106503Y0052142D01*
X0106634Y0052049D01*
X0106762Y0051953D01*
X0106888Y0051853D01*
X0107012Y0051750D01*
X0107133Y0051645D01*
X0107252Y0051536D01*
X0107368Y0051425D01*
X0107481Y0051310D01*
X0107591Y0051193D01*
X0107698Y0051073D01*
X0107802Y0050951D01*
X0107903Y0050826D01*
X0108001Y0050698D01*
X0108096Y0050568D01*
X0108188Y0050436D01*
X0108276Y0050302D01*
X0108361Y0050165D01*
X0108443Y0050027D01*
X0108521Y0049886D01*
X0108595Y0049744D01*
X0108666Y0049600D01*
X0108734Y0049454D01*
X0108797Y0049306D01*
X0108858Y0049157D01*
X0108914Y0049006D01*
X0108967Y0048854D01*
X0109016Y0048701D01*
X0109061Y0048547D01*
X0109102Y0048392D01*
X0109140Y0048235D01*
X0109173Y0048078D01*
X0109203Y0047920D01*
X0109229Y0047761D01*
X0109250Y0047602D01*
X0109268Y0047442D01*
X0109282Y0047282D01*
X0109292Y0047121D01*
X0109298Y0046961D01*
X0109300Y0046800D01*
X0109298Y0046639D01*
X0109292Y0046479D01*
X0109282Y0046318D01*
X0109268Y0046158D01*
X0109250Y0045998D01*
X0109229Y0045839D01*
X0109203Y0045680D01*
X0109173Y0045522D01*
X0109140Y0045365D01*
X0109102Y0045208D01*
X0109061Y0045053D01*
X0109016Y0044899D01*
X0108967Y0044746D01*
X0108914Y0044594D01*
X0108858Y0044443D01*
X0108797Y0044294D01*
X0108734Y0044146D01*
X0108666Y0044000D01*
X0108595Y0043856D01*
X0108521Y0043714D01*
X0108443Y0043573D01*
X0108361Y0043435D01*
X0108276Y0043298D01*
X0108188Y0043164D01*
X0108096Y0043032D01*
X0108001Y0042902D01*
X0107903Y0042774D01*
X0107802Y0042649D01*
X0107698Y0042527D01*
X0107591Y0042407D01*
X0107481Y0042290D01*
X0107368Y0042175D01*
X0107252Y0042064D01*
X0107133Y0041955D01*
X0107012Y0041850D01*
X0106888Y0041747D01*
X0106762Y0041647D01*
X0106634Y0041551D01*
X0106503Y0041458D01*
X0106369Y0041368D01*
X0106234Y0041281D01*
X0106096Y0041198D01*
X0105957Y0041118D01*
X0105815Y0041042D01*
X0105672Y0040969D01*
X0105527Y0040900D01*
X0105380Y0040834D01*
X0105232Y0040772D01*
X0105082Y0040714D01*
X0104931Y0040659D01*
X0104778Y0040608D01*
X0104624Y0040561D01*
X0104469Y0040518D01*
X0104313Y0040479D01*
X0104157Y0040443D01*
X0103999Y0040412D01*
X0103841Y0040384D01*
X0103682Y0040360D01*
X0103522Y0040340D01*
X0103362Y0040324D01*
X0103202Y0040312D01*
X0103041Y0040304D01*
X0102880Y0040300D01*
X0102720Y0040300D01*
X0102559Y0040304D01*
X0102398Y0040312D01*
X0102238Y0040324D01*
X0102078Y0040340D01*
X0101918Y0040360D01*
X0101759Y0040384D01*
X0101601Y0040412D01*
X0101443Y0040443D01*
X0101287Y0040479D01*
X0101131Y0040518D01*
X0100976Y0040561D01*
X0100822Y0040608D01*
X0100669Y0040659D01*
X0100518Y0040714D01*
X0100368Y0040772D01*
X0100220Y0040834D01*
X0100073Y0040900D01*
X0099928Y0040969D01*
X0099785Y0041042D01*
X0099643Y0041118D01*
X0099504Y0041198D01*
X0099366Y0041281D01*
X0099231Y0041368D01*
X0099097Y0041458D01*
X0098966Y0041551D01*
X0098838Y0041647D01*
X0098712Y0041747D01*
X0098588Y0041850D01*
X0098467Y0041955D01*
X0098348Y0042064D01*
X0098232Y0042175D01*
X0098119Y0042290D01*
X0098009Y0042407D01*
X0097902Y0042527D01*
X0097798Y0042649D01*
X0097697Y0042774D01*
X0097599Y0042902D01*
X0097504Y0043032D01*
X0097412Y0043164D01*
X0097324Y0043298D01*
X0097239Y0043435D01*
X0097157Y0043573D01*
X0097079Y0043714D01*
X0097005Y0043856D01*
X0096934Y0044000D01*
X0096866Y0044146D01*
X0096803Y0044294D01*
X0096742Y0044443D01*
X0096686Y0044594D01*
X0096633Y0044746D01*
X0096584Y0044899D01*
X0096539Y0045053D01*
X0096498Y0045208D01*
X0096460Y0045365D01*
X0096427Y0045522D01*
X0096397Y0045680D01*
X0096371Y0045839D01*
X0096350Y0045998D01*
X0096332Y0046158D01*
X0096318Y0046318D01*
X0096308Y0046479D01*
X0096302Y0046639D01*
X0096300Y0046800D01*
X0011700Y0266800D02*
X0011702Y0266999D01*
X0011710Y0267197D01*
X0011722Y0267396D01*
X0011739Y0267594D01*
X0011761Y0267792D01*
X0011788Y0267989D01*
X0011819Y0268185D01*
X0011856Y0268380D01*
X0011897Y0268575D01*
X0011943Y0268768D01*
X0011993Y0268960D01*
X0012049Y0269151D01*
X0012109Y0269341D01*
X0012173Y0269529D01*
X0012243Y0269715D01*
X0012317Y0269900D01*
X0012395Y0270082D01*
X0012478Y0270263D01*
X0012565Y0270442D01*
X0012656Y0270618D01*
X0012752Y0270792D01*
X0012852Y0270964D01*
X0012957Y0271133D01*
X0013065Y0271300D01*
X0013178Y0271464D01*
X0013294Y0271625D01*
X0013414Y0271783D01*
X0013539Y0271939D01*
X0013667Y0272091D01*
X0013798Y0272240D01*
X0013934Y0272385D01*
X0014072Y0272528D01*
X0014215Y0272666D01*
X0014360Y0272802D01*
X0014509Y0272933D01*
X0014661Y0273061D01*
X0014817Y0273186D01*
X0014975Y0273306D01*
X0015136Y0273422D01*
X0015300Y0273535D01*
X0015467Y0273643D01*
X0015636Y0273748D01*
X0015808Y0273848D01*
X0015982Y0273944D01*
X0016158Y0274035D01*
X0016337Y0274122D01*
X0016518Y0274205D01*
X0016700Y0274283D01*
X0016885Y0274357D01*
X0017071Y0274427D01*
X0017259Y0274491D01*
X0017449Y0274551D01*
X0017640Y0274607D01*
X0017832Y0274657D01*
X0018025Y0274703D01*
X0018220Y0274744D01*
X0018415Y0274781D01*
X0018611Y0274812D01*
X0018808Y0274839D01*
X0019006Y0274861D01*
X0019204Y0274878D01*
X0019403Y0274890D01*
X0019601Y0274898D01*
X0019800Y0274900D01*
X0019999Y0274898D01*
X0020197Y0274890D01*
X0020396Y0274878D01*
X0020594Y0274861D01*
X0020792Y0274839D01*
X0020989Y0274812D01*
X0021185Y0274781D01*
X0021380Y0274744D01*
X0021575Y0274703D01*
X0021768Y0274657D01*
X0021960Y0274607D01*
X0022151Y0274551D01*
X0022341Y0274491D01*
X0022529Y0274427D01*
X0022715Y0274357D01*
X0022900Y0274283D01*
X0023082Y0274205D01*
X0023263Y0274122D01*
X0023442Y0274035D01*
X0023618Y0273944D01*
X0023792Y0273848D01*
X0023964Y0273748D01*
X0024133Y0273643D01*
X0024300Y0273535D01*
X0024464Y0273422D01*
X0024625Y0273306D01*
X0024783Y0273186D01*
X0024939Y0273061D01*
X0025091Y0272933D01*
X0025240Y0272802D01*
X0025385Y0272666D01*
X0025528Y0272528D01*
X0025666Y0272385D01*
X0025802Y0272240D01*
X0025933Y0272091D01*
X0026061Y0271939D01*
X0026186Y0271783D01*
X0026306Y0271625D01*
X0026422Y0271464D01*
X0026535Y0271300D01*
X0026643Y0271133D01*
X0026748Y0270964D01*
X0026848Y0270792D01*
X0026944Y0270618D01*
X0027035Y0270442D01*
X0027122Y0270263D01*
X0027205Y0270082D01*
X0027283Y0269900D01*
X0027357Y0269715D01*
X0027427Y0269529D01*
X0027491Y0269341D01*
X0027551Y0269151D01*
X0027607Y0268960D01*
X0027657Y0268768D01*
X0027703Y0268575D01*
X0027744Y0268380D01*
X0027781Y0268185D01*
X0027812Y0267989D01*
X0027839Y0267792D01*
X0027861Y0267594D01*
X0027878Y0267396D01*
X0027890Y0267197D01*
X0027898Y0266999D01*
X0027900Y0266800D01*
X0027898Y0266601D01*
X0027890Y0266403D01*
X0027878Y0266204D01*
X0027861Y0266006D01*
X0027839Y0265808D01*
X0027812Y0265611D01*
X0027781Y0265415D01*
X0027744Y0265220D01*
X0027703Y0265025D01*
X0027657Y0264832D01*
X0027607Y0264640D01*
X0027551Y0264449D01*
X0027491Y0264259D01*
X0027427Y0264071D01*
X0027357Y0263885D01*
X0027283Y0263700D01*
X0027205Y0263518D01*
X0027122Y0263337D01*
X0027035Y0263158D01*
X0026944Y0262982D01*
X0026848Y0262808D01*
X0026748Y0262636D01*
X0026643Y0262467D01*
X0026535Y0262300D01*
X0026422Y0262136D01*
X0026306Y0261975D01*
X0026186Y0261817D01*
X0026061Y0261661D01*
X0025933Y0261509D01*
X0025802Y0261360D01*
X0025666Y0261215D01*
X0025528Y0261072D01*
X0025385Y0260934D01*
X0025240Y0260798D01*
X0025091Y0260667D01*
X0024939Y0260539D01*
X0024783Y0260414D01*
X0024625Y0260294D01*
X0024464Y0260178D01*
X0024300Y0260065D01*
X0024133Y0259957D01*
X0023964Y0259852D01*
X0023792Y0259752D01*
X0023618Y0259656D01*
X0023442Y0259565D01*
X0023263Y0259478D01*
X0023082Y0259395D01*
X0022900Y0259317D01*
X0022715Y0259243D01*
X0022529Y0259173D01*
X0022341Y0259109D01*
X0022151Y0259049D01*
X0021960Y0258993D01*
X0021768Y0258943D01*
X0021575Y0258897D01*
X0021380Y0258856D01*
X0021185Y0258819D01*
X0020989Y0258788D01*
X0020792Y0258761D01*
X0020594Y0258739D01*
X0020396Y0258722D01*
X0020197Y0258710D01*
X0019999Y0258702D01*
X0019800Y0258700D01*
X0019601Y0258702D01*
X0019403Y0258710D01*
X0019204Y0258722D01*
X0019006Y0258739D01*
X0018808Y0258761D01*
X0018611Y0258788D01*
X0018415Y0258819D01*
X0018220Y0258856D01*
X0018025Y0258897D01*
X0017832Y0258943D01*
X0017640Y0258993D01*
X0017449Y0259049D01*
X0017259Y0259109D01*
X0017071Y0259173D01*
X0016885Y0259243D01*
X0016700Y0259317D01*
X0016518Y0259395D01*
X0016337Y0259478D01*
X0016158Y0259565D01*
X0015982Y0259656D01*
X0015808Y0259752D01*
X0015636Y0259852D01*
X0015467Y0259957D01*
X0015300Y0260065D01*
X0015136Y0260178D01*
X0014975Y0260294D01*
X0014817Y0260414D01*
X0014661Y0260539D01*
X0014509Y0260667D01*
X0014360Y0260798D01*
X0014215Y0260934D01*
X0014072Y0261072D01*
X0013934Y0261215D01*
X0013798Y0261360D01*
X0013667Y0261509D01*
X0013539Y0261661D01*
X0013414Y0261817D01*
X0013294Y0261975D01*
X0013178Y0262136D01*
X0013065Y0262300D01*
X0012957Y0262467D01*
X0012852Y0262636D01*
X0012752Y0262808D01*
X0012656Y0262982D01*
X0012565Y0263158D01*
X0012478Y0263337D01*
X0012395Y0263518D01*
X0012317Y0263700D01*
X0012243Y0263885D01*
X0012173Y0264071D01*
X0012109Y0264259D01*
X0012049Y0264449D01*
X0011993Y0264640D01*
X0011943Y0264832D01*
X0011897Y0265025D01*
X0011856Y0265220D01*
X0011819Y0265415D01*
X0011788Y0265611D01*
X0011761Y0265808D01*
X0011739Y0266006D01*
X0011722Y0266204D01*
X0011710Y0266403D01*
X0011702Y0266601D01*
X0011700Y0266800D01*
X0195700Y0266800D02*
X0195702Y0266999D01*
X0195710Y0267197D01*
X0195722Y0267396D01*
X0195739Y0267594D01*
X0195761Y0267792D01*
X0195788Y0267989D01*
X0195819Y0268185D01*
X0195856Y0268380D01*
X0195897Y0268575D01*
X0195943Y0268768D01*
X0195993Y0268960D01*
X0196049Y0269151D01*
X0196109Y0269341D01*
X0196173Y0269529D01*
X0196243Y0269715D01*
X0196317Y0269900D01*
X0196395Y0270082D01*
X0196478Y0270263D01*
X0196565Y0270442D01*
X0196656Y0270618D01*
X0196752Y0270792D01*
X0196852Y0270964D01*
X0196957Y0271133D01*
X0197065Y0271300D01*
X0197178Y0271464D01*
X0197294Y0271625D01*
X0197414Y0271783D01*
X0197539Y0271939D01*
X0197667Y0272091D01*
X0197798Y0272240D01*
X0197934Y0272385D01*
X0198072Y0272528D01*
X0198215Y0272666D01*
X0198360Y0272802D01*
X0198509Y0272933D01*
X0198661Y0273061D01*
X0198817Y0273186D01*
X0198975Y0273306D01*
X0199136Y0273422D01*
X0199300Y0273535D01*
X0199467Y0273643D01*
X0199636Y0273748D01*
X0199808Y0273848D01*
X0199982Y0273944D01*
X0200158Y0274035D01*
X0200337Y0274122D01*
X0200518Y0274205D01*
X0200700Y0274283D01*
X0200885Y0274357D01*
X0201071Y0274427D01*
X0201259Y0274491D01*
X0201449Y0274551D01*
X0201640Y0274607D01*
X0201832Y0274657D01*
X0202025Y0274703D01*
X0202220Y0274744D01*
X0202415Y0274781D01*
X0202611Y0274812D01*
X0202808Y0274839D01*
X0203006Y0274861D01*
X0203204Y0274878D01*
X0203403Y0274890D01*
X0203601Y0274898D01*
X0203800Y0274900D01*
X0203999Y0274898D01*
X0204197Y0274890D01*
X0204396Y0274878D01*
X0204594Y0274861D01*
X0204792Y0274839D01*
X0204989Y0274812D01*
X0205185Y0274781D01*
X0205380Y0274744D01*
X0205575Y0274703D01*
X0205768Y0274657D01*
X0205960Y0274607D01*
X0206151Y0274551D01*
X0206341Y0274491D01*
X0206529Y0274427D01*
X0206715Y0274357D01*
X0206900Y0274283D01*
X0207082Y0274205D01*
X0207263Y0274122D01*
X0207442Y0274035D01*
X0207618Y0273944D01*
X0207792Y0273848D01*
X0207964Y0273748D01*
X0208133Y0273643D01*
X0208300Y0273535D01*
X0208464Y0273422D01*
X0208625Y0273306D01*
X0208783Y0273186D01*
X0208939Y0273061D01*
X0209091Y0272933D01*
X0209240Y0272802D01*
X0209385Y0272666D01*
X0209528Y0272528D01*
X0209666Y0272385D01*
X0209802Y0272240D01*
X0209933Y0272091D01*
X0210061Y0271939D01*
X0210186Y0271783D01*
X0210306Y0271625D01*
X0210422Y0271464D01*
X0210535Y0271300D01*
X0210643Y0271133D01*
X0210748Y0270964D01*
X0210848Y0270792D01*
X0210944Y0270618D01*
X0211035Y0270442D01*
X0211122Y0270263D01*
X0211205Y0270082D01*
X0211283Y0269900D01*
X0211357Y0269715D01*
X0211427Y0269529D01*
X0211491Y0269341D01*
X0211551Y0269151D01*
X0211607Y0268960D01*
X0211657Y0268768D01*
X0211703Y0268575D01*
X0211744Y0268380D01*
X0211781Y0268185D01*
X0211812Y0267989D01*
X0211839Y0267792D01*
X0211861Y0267594D01*
X0211878Y0267396D01*
X0211890Y0267197D01*
X0211898Y0266999D01*
X0211900Y0266800D01*
X0211898Y0266601D01*
X0211890Y0266403D01*
X0211878Y0266204D01*
X0211861Y0266006D01*
X0211839Y0265808D01*
X0211812Y0265611D01*
X0211781Y0265415D01*
X0211744Y0265220D01*
X0211703Y0265025D01*
X0211657Y0264832D01*
X0211607Y0264640D01*
X0211551Y0264449D01*
X0211491Y0264259D01*
X0211427Y0264071D01*
X0211357Y0263885D01*
X0211283Y0263700D01*
X0211205Y0263518D01*
X0211122Y0263337D01*
X0211035Y0263158D01*
X0210944Y0262982D01*
X0210848Y0262808D01*
X0210748Y0262636D01*
X0210643Y0262467D01*
X0210535Y0262300D01*
X0210422Y0262136D01*
X0210306Y0261975D01*
X0210186Y0261817D01*
X0210061Y0261661D01*
X0209933Y0261509D01*
X0209802Y0261360D01*
X0209666Y0261215D01*
X0209528Y0261072D01*
X0209385Y0260934D01*
X0209240Y0260798D01*
X0209091Y0260667D01*
X0208939Y0260539D01*
X0208783Y0260414D01*
X0208625Y0260294D01*
X0208464Y0260178D01*
X0208300Y0260065D01*
X0208133Y0259957D01*
X0207964Y0259852D01*
X0207792Y0259752D01*
X0207618Y0259656D01*
X0207442Y0259565D01*
X0207263Y0259478D01*
X0207082Y0259395D01*
X0206900Y0259317D01*
X0206715Y0259243D01*
X0206529Y0259173D01*
X0206341Y0259109D01*
X0206151Y0259049D01*
X0205960Y0258993D01*
X0205768Y0258943D01*
X0205575Y0258897D01*
X0205380Y0258856D01*
X0205185Y0258819D01*
X0204989Y0258788D01*
X0204792Y0258761D01*
X0204594Y0258739D01*
X0204396Y0258722D01*
X0204197Y0258710D01*
X0203999Y0258702D01*
X0203800Y0258700D01*
X0203601Y0258702D01*
X0203403Y0258710D01*
X0203204Y0258722D01*
X0203006Y0258739D01*
X0202808Y0258761D01*
X0202611Y0258788D01*
X0202415Y0258819D01*
X0202220Y0258856D01*
X0202025Y0258897D01*
X0201832Y0258943D01*
X0201640Y0258993D01*
X0201449Y0259049D01*
X0201259Y0259109D01*
X0201071Y0259173D01*
X0200885Y0259243D01*
X0200700Y0259317D01*
X0200518Y0259395D01*
X0200337Y0259478D01*
X0200158Y0259565D01*
X0199982Y0259656D01*
X0199808Y0259752D01*
X0199636Y0259852D01*
X0199467Y0259957D01*
X0199300Y0260065D01*
X0199136Y0260178D01*
X0198975Y0260294D01*
X0198817Y0260414D01*
X0198661Y0260539D01*
X0198509Y0260667D01*
X0198360Y0260798D01*
X0198215Y0260934D01*
X0198072Y0261072D01*
X0197934Y0261215D01*
X0197798Y0261360D01*
X0197667Y0261509D01*
X0197539Y0261661D01*
X0197414Y0261817D01*
X0197294Y0261975D01*
X0197178Y0262136D01*
X0197065Y0262300D01*
X0196957Y0262467D01*
X0196852Y0262636D01*
X0196752Y0262808D01*
X0196656Y0262982D01*
X0196565Y0263158D01*
X0196478Y0263337D01*
X0196395Y0263518D01*
X0196317Y0263700D01*
X0196243Y0263885D01*
X0196173Y0264071D01*
X0196109Y0264259D01*
X0196049Y0264449D01*
X0195993Y0264640D01*
X0195943Y0264832D01*
X0195897Y0265025D01*
X0195856Y0265220D01*
X0195819Y0265415D01*
X0195788Y0265611D01*
X0195761Y0265808D01*
X0195739Y0266006D01*
X0195722Y0266204D01*
X0195710Y0266403D01*
X0195702Y0266601D01*
X0195700Y0266800D01*
D11*
X0191800Y0201800D03*
X0191800Y0181800D03*
X0191800Y0131800D03*
X0191800Y0111800D03*
X0150800Y0111800D03*
X0150800Y0141800D03*
X0150800Y0181800D03*
D12*
X0142800Y0181800D03*
X0142800Y0141800D03*
X0142800Y0111800D03*
D13*
X0158500Y0056800D02*
X0165100Y0056800D01*
X0165100Y0046800D02*
X0158500Y0046800D01*
X0158500Y0036800D02*
X0165100Y0036800D01*
D14*
X0102800Y0046800D03*
D15*
X0100800Y0261300D03*
X0095300Y0272300D03*
X0089800Y0261300D03*
X0084300Y0272300D03*
X0078800Y0261300D03*
X0073300Y0272300D03*
X0067800Y0261300D03*
X0062300Y0272300D03*
X0056800Y0261300D03*
X0051300Y0272300D03*
X0045800Y0261300D03*
X0106300Y0272300D03*
X0111800Y0261300D03*
X0117300Y0272300D03*
X0122800Y0261300D03*
X0128300Y0272300D03*
X0133800Y0261300D03*
X0139300Y0272300D03*
X0144800Y0261300D03*
X0150300Y0272300D03*
X0155800Y0261300D03*
X0161300Y0272300D03*
X0166800Y0261300D03*
X0172300Y0272300D03*
X0177800Y0261300D03*
D16*
X0203800Y0266800D03*
X0019800Y0266800D03*
D17*
X0037863Y0064005D02*
X0045737Y0064005D01*
X0060698Y0055737D02*
X0060698Y0047863D01*
X0045737Y0039989D02*
X0037863Y0039989D01*
D18*
X0071800Y0206800D03*
D19*
X0071800Y0196800D03*
X0071800Y0186800D03*
X0071800Y0176800D03*
X0071800Y0166800D03*
X0071800Y0156800D03*
X0071800Y0146800D03*
X0071800Y0136800D03*
X0071800Y0126800D03*
X0071800Y0116800D03*
X0101800Y0116800D03*
X0101800Y0126800D03*
X0101800Y0136800D03*
X0101800Y0146800D03*
X0101800Y0156800D03*
X0101800Y0166800D03*
X0101800Y0176800D03*
X0101800Y0186800D03*
X0101800Y0196800D03*
X0101800Y0206800D03*
D20*
X0029800Y0206800D02*
X0023800Y0206800D01*
X0023800Y0196800D02*
X0029800Y0196800D01*
X0029800Y0186800D02*
X0023800Y0186800D01*
X0023800Y0176800D02*
X0029800Y0176800D01*
X0029800Y0166800D02*
X0023800Y0166800D01*
X0023800Y0156800D02*
X0029800Y0156800D01*
X0029800Y0146800D02*
X0023800Y0146800D01*
X0023800Y0136800D02*
X0029800Y0136800D01*
X0029800Y0126800D02*
X0023800Y0126800D01*
X0023800Y0116800D02*
X0029800Y0116800D01*
D21*
X0081800Y0091800D03*
X0116800Y0126800D03*
X0121800Y0161800D03*
X0131800Y0161800D03*
X0111800Y0166800D03*
X0091800Y0176800D03*
X0081800Y0231800D03*
X0081800Y0241800D03*
X0056800Y0231800D03*
X0141800Y0231800D03*
X0151800Y0226800D03*
X0171800Y0111800D03*
X0166800Y0076800D03*
X0186800Y0046800D03*
X0206800Y0046800D03*
M02*
