G75*
%MOIN*%
%OFA0B0*%
%FSLAX25Y25*%
%IPPOS*%
%LPD*%
%AMOC8*
5,1,8,0,0,1.08239X$1,22.5*
%
%ADD10C,0.00000*%
%ADD11C,0.01200*%
%ADD12C,0.00600*%
%ADD13C,0.00500*%
%ADD14C,0.00200*%
%ADD15R,0.02500X0.03000*%
%ADD16R,0.11000X0.05000*%
%ADD17C,0.00700*%
%ADD18C,0.00400*%
%ADD19C,0.00800*%
%ADD20C,0.00300*%
%ADD21C,0.01000*%
D10*
X0001800Y0001800D02*
X0001800Y0315501D01*
X0226721Y0315501D01*
X0226721Y0001800D01*
X0001800Y0001800D01*
X0096300Y0046800D02*
X0096302Y0046961D01*
X0096308Y0047121D01*
X0096318Y0047282D01*
X0096332Y0047442D01*
X0096350Y0047602D01*
X0096371Y0047761D01*
X0096397Y0047920D01*
X0096427Y0048078D01*
X0096460Y0048235D01*
X0096498Y0048392D01*
X0096539Y0048547D01*
X0096584Y0048701D01*
X0096633Y0048854D01*
X0096686Y0049006D01*
X0096742Y0049157D01*
X0096803Y0049306D01*
X0096866Y0049454D01*
X0096934Y0049600D01*
X0097005Y0049744D01*
X0097079Y0049886D01*
X0097157Y0050027D01*
X0097239Y0050165D01*
X0097324Y0050302D01*
X0097412Y0050436D01*
X0097504Y0050568D01*
X0097599Y0050698D01*
X0097697Y0050826D01*
X0097798Y0050951D01*
X0097902Y0051073D01*
X0098009Y0051193D01*
X0098119Y0051310D01*
X0098232Y0051425D01*
X0098348Y0051536D01*
X0098467Y0051645D01*
X0098588Y0051750D01*
X0098712Y0051853D01*
X0098838Y0051953D01*
X0098966Y0052049D01*
X0099097Y0052142D01*
X0099231Y0052232D01*
X0099366Y0052319D01*
X0099504Y0052402D01*
X0099643Y0052482D01*
X0099785Y0052558D01*
X0099928Y0052631D01*
X0100073Y0052700D01*
X0100220Y0052766D01*
X0100368Y0052828D01*
X0100518Y0052886D01*
X0100669Y0052941D01*
X0100822Y0052992D01*
X0100976Y0053039D01*
X0101131Y0053082D01*
X0101287Y0053121D01*
X0101443Y0053157D01*
X0101601Y0053188D01*
X0101759Y0053216D01*
X0101918Y0053240D01*
X0102078Y0053260D01*
X0102238Y0053276D01*
X0102398Y0053288D01*
X0102559Y0053296D01*
X0102720Y0053300D01*
X0102880Y0053300D01*
X0103041Y0053296D01*
X0103202Y0053288D01*
X0103362Y0053276D01*
X0103522Y0053260D01*
X0103682Y0053240D01*
X0103841Y0053216D01*
X0103999Y0053188D01*
X0104157Y0053157D01*
X0104313Y0053121D01*
X0104469Y0053082D01*
X0104624Y0053039D01*
X0104778Y0052992D01*
X0104931Y0052941D01*
X0105082Y0052886D01*
X0105232Y0052828D01*
X0105380Y0052766D01*
X0105527Y0052700D01*
X0105672Y0052631D01*
X0105815Y0052558D01*
X0105957Y0052482D01*
X0106096Y0052402D01*
X0106234Y0052319D01*
X0106369Y0052232D01*
X0106503Y0052142D01*
X0106634Y0052049D01*
X0106762Y0051953D01*
X0106888Y0051853D01*
X0107012Y0051750D01*
X0107133Y0051645D01*
X0107252Y0051536D01*
X0107368Y0051425D01*
X0107481Y0051310D01*
X0107591Y0051193D01*
X0107698Y0051073D01*
X0107802Y0050951D01*
X0107903Y0050826D01*
X0108001Y0050698D01*
X0108096Y0050568D01*
X0108188Y0050436D01*
X0108276Y0050302D01*
X0108361Y0050165D01*
X0108443Y0050027D01*
X0108521Y0049886D01*
X0108595Y0049744D01*
X0108666Y0049600D01*
X0108734Y0049454D01*
X0108797Y0049306D01*
X0108858Y0049157D01*
X0108914Y0049006D01*
X0108967Y0048854D01*
X0109016Y0048701D01*
X0109061Y0048547D01*
X0109102Y0048392D01*
X0109140Y0048235D01*
X0109173Y0048078D01*
X0109203Y0047920D01*
X0109229Y0047761D01*
X0109250Y0047602D01*
X0109268Y0047442D01*
X0109282Y0047282D01*
X0109292Y0047121D01*
X0109298Y0046961D01*
X0109300Y0046800D01*
X0109298Y0046639D01*
X0109292Y0046479D01*
X0109282Y0046318D01*
X0109268Y0046158D01*
X0109250Y0045998D01*
X0109229Y0045839D01*
X0109203Y0045680D01*
X0109173Y0045522D01*
X0109140Y0045365D01*
X0109102Y0045208D01*
X0109061Y0045053D01*
X0109016Y0044899D01*
X0108967Y0044746D01*
X0108914Y0044594D01*
X0108858Y0044443D01*
X0108797Y0044294D01*
X0108734Y0044146D01*
X0108666Y0044000D01*
X0108595Y0043856D01*
X0108521Y0043714D01*
X0108443Y0043573D01*
X0108361Y0043435D01*
X0108276Y0043298D01*
X0108188Y0043164D01*
X0108096Y0043032D01*
X0108001Y0042902D01*
X0107903Y0042774D01*
X0107802Y0042649D01*
X0107698Y0042527D01*
X0107591Y0042407D01*
X0107481Y0042290D01*
X0107368Y0042175D01*
X0107252Y0042064D01*
X0107133Y0041955D01*
X0107012Y0041850D01*
X0106888Y0041747D01*
X0106762Y0041647D01*
X0106634Y0041551D01*
X0106503Y0041458D01*
X0106369Y0041368D01*
X0106234Y0041281D01*
X0106096Y0041198D01*
X0105957Y0041118D01*
X0105815Y0041042D01*
X0105672Y0040969D01*
X0105527Y0040900D01*
X0105380Y0040834D01*
X0105232Y0040772D01*
X0105082Y0040714D01*
X0104931Y0040659D01*
X0104778Y0040608D01*
X0104624Y0040561D01*
X0104469Y0040518D01*
X0104313Y0040479D01*
X0104157Y0040443D01*
X0103999Y0040412D01*
X0103841Y0040384D01*
X0103682Y0040360D01*
X0103522Y0040340D01*
X0103362Y0040324D01*
X0103202Y0040312D01*
X0103041Y0040304D01*
X0102880Y0040300D01*
X0102720Y0040300D01*
X0102559Y0040304D01*
X0102398Y0040312D01*
X0102238Y0040324D01*
X0102078Y0040340D01*
X0101918Y0040360D01*
X0101759Y0040384D01*
X0101601Y0040412D01*
X0101443Y0040443D01*
X0101287Y0040479D01*
X0101131Y0040518D01*
X0100976Y0040561D01*
X0100822Y0040608D01*
X0100669Y0040659D01*
X0100518Y0040714D01*
X0100368Y0040772D01*
X0100220Y0040834D01*
X0100073Y0040900D01*
X0099928Y0040969D01*
X0099785Y0041042D01*
X0099643Y0041118D01*
X0099504Y0041198D01*
X0099366Y0041281D01*
X0099231Y0041368D01*
X0099097Y0041458D01*
X0098966Y0041551D01*
X0098838Y0041647D01*
X0098712Y0041747D01*
X0098588Y0041850D01*
X0098467Y0041955D01*
X0098348Y0042064D01*
X0098232Y0042175D01*
X0098119Y0042290D01*
X0098009Y0042407D01*
X0097902Y0042527D01*
X0097798Y0042649D01*
X0097697Y0042774D01*
X0097599Y0042902D01*
X0097504Y0043032D01*
X0097412Y0043164D01*
X0097324Y0043298D01*
X0097239Y0043435D01*
X0097157Y0043573D01*
X0097079Y0043714D01*
X0097005Y0043856D01*
X0096934Y0044000D01*
X0096866Y0044146D01*
X0096803Y0044294D01*
X0096742Y0044443D01*
X0096686Y0044594D01*
X0096633Y0044746D01*
X0096584Y0044899D01*
X0096539Y0045053D01*
X0096498Y0045208D01*
X0096460Y0045365D01*
X0096427Y0045522D01*
X0096397Y0045680D01*
X0096371Y0045839D01*
X0096350Y0045998D01*
X0096332Y0046158D01*
X0096318Y0046318D01*
X0096308Y0046479D01*
X0096302Y0046639D01*
X0096300Y0046800D01*
X0011700Y0266800D02*
X0011702Y0266999D01*
X0011710Y0267197D01*
X0011722Y0267396D01*
X0011739Y0267594D01*
X0011761Y0267792D01*
X0011788Y0267989D01*
X0011819Y0268185D01*
X0011856Y0268380D01*
X0011897Y0268575D01*
X0011943Y0268768D01*
X0011993Y0268960D01*
X0012049Y0269151D01*
X0012109Y0269341D01*
X0012173Y0269529D01*
X0012243Y0269715D01*
X0012317Y0269900D01*
X0012395Y0270082D01*
X0012478Y0270263D01*
X0012565Y0270442D01*
X0012656Y0270618D01*
X0012752Y0270792D01*
X0012852Y0270964D01*
X0012957Y0271133D01*
X0013065Y0271300D01*
X0013178Y0271464D01*
X0013294Y0271625D01*
X0013414Y0271783D01*
X0013539Y0271939D01*
X0013667Y0272091D01*
X0013798Y0272240D01*
X0013934Y0272385D01*
X0014072Y0272528D01*
X0014215Y0272666D01*
X0014360Y0272802D01*
X0014509Y0272933D01*
X0014661Y0273061D01*
X0014817Y0273186D01*
X0014975Y0273306D01*
X0015136Y0273422D01*
X0015300Y0273535D01*
X0015467Y0273643D01*
X0015636Y0273748D01*
X0015808Y0273848D01*
X0015982Y0273944D01*
X0016158Y0274035D01*
X0016337Y0274122D01*
X0016518Y0274205D01*
X0016700Y0274283D01*
X0016885Y0274357D01*
X0017071Y0274427D01*
X0017259Y0274491D01*
X0017449Y0274551D01*
X0017640Y0274607D01*
X0017832Y0274657D01*
X0018025Y0274703D01*
X0018220Y0274744D01*
X0018415Y0274781D01*
X0018611Y0274812D01*
X0018808Y0274839D01*
X0019006Y0274861D01*
X0019204Y0274878D01*
X0019403Y0274890D01*
X0019601Y0274898D01*
X0019800Y0274900D01*
X0019999Y0274898D01*
X0020197Y0274890D01*
X0020396Y0274878D01*
X0020594Y0274861D01*
X0020792Y0274839D01*
X0020989Y0274812D01*
X0021185Y0274781D01*
X0021380Y0274744D01*
X0021575Y0274703D01*
X0021768Y0274657D01*
X0021960Y0274607D01*
X0022151Y0274551D01*
X0022341Y0274491D01*
X0022529Y0274427D01*
X0022715Y0274357D01*
X0022900Y0274283D01*
X0023082Y0274205D01*
X0023263Y0274122D01*
X0023442Y0274035D01*
X0023618Y0273944D01*
X0023792Y0273848D01*
X0023964Y0273748D01*
X0024133Y0273643D01*
X0024300Y0273535D01*
X0024464Y0273422D01*
X0024625Y0273306D01*
X0024783Y0273186D01*
X0024939Y0273061D01*
X0025091Y0272933D01*
X0025240Y0272802D01*
X0025385Y0272666D01*
X0025528Y0272528D01*
X0025666Y0272385D01*
X0025802Y0272240D01*
X0025933Y0272091D01*
X0026061Y0271939D01*
X0026186Y0271783D01*
X0026306Y0271625D01*
X0026422Y0271464D01*
X0026535Y0271300D01*
X0026643Y0271133D01*
X0026748Y0270964D01*
X0026848Y0270792D01*
X0026944Y0270618D01*
X0027035Y0270442D01*
X0027122Y0270263D01*
X0027205Y0270082D01*
X0027283Y0269900D01*
X0027357Y0269715D01*
X0027427Y0269529D01*
X0027491Y0269341D01*
X0027551Y0269151D01*
X0027607Y0268960D01*
X0027657Y0268768D01*
X0027703Y0268575D01*
X0027744Y0268380D01*
X0027781Y0268185D01*
X0027812Y0267989D01*
X0027839Y0267792D01*
X0027861Y0267594D01*
X0027878Y0267396D01*
X0027890Y0267197D01*
X0027898Y0266999D01*
X0027900Y0266800D01*
X0027898Y0266601D01*
X0027890Y0266403D01*
X0027878Y0266204D01*
X0027861Y0266006D01*
X0027839Y0265808D01*
X0027812Y0265611D01*
X0027781Y0265415D01*
X0027744Y0265220D01*
X0027703Y0265025D01*
X0027657Y0264832D01*
X0027607Y0264640D01*
X0027551Y0264449D01*
X0027491Y0264259D01*
X0027427Y0264071D01*
X0027357Y0263885D01*
X0027283Y0263700D01*
X0027205Y0263518D01*
X0027122Y0263337D01*
X0027035Y0263158D01*
X0026944Y0262982D01*
X0026848Y0262808D01*
X0026748Y0262636D01*
X0026643Y0262467D01*
X0026535Y0262300D01*
X0026422Y0262136D01*
X0026306Y0261975D01*
X0026186Y0261817D01*
X0026061Y0261661D01*
X0025933Y0261509D01*
X0025802Y0261360D01*
X0025666Y0261215D01*
X0025528Y0261072D01*
X0025385Y0260934D01*
X0025240Y0260798D01*
X0025091Y0260667D01*
X0024939Y0260539D01*
X0024783Y0260414D01*
X0024625Y0260294D01*
X0024464Y0260178D01*
X0024300Y0260065D01*
X0024133Y0259957D01*
X0023964Y0259852D01*
X0023792Y0259752D01*
X0023618Y0259656D01*
X0023442Y0259565D01*
X0023263Y0259478D01*
X0023082Y0259395D01*
X0022900Y0259317D01*
X0022715Y0259243D01*
X0022529Y0259173D01*
X0022341Y0259109D01*
X0022151Y0259049D01*
X0021960Y0258993D01*
X0021768Y0258943D01*
X0021575Y0258897D01*
X0021380Y0258856D01*
X0021185Y0258819D01*
X0020989Y0258788D01*
X0020792Y0258761D01*
X0020594Y0258739D01*
X0020396Y0258722D01*
X0020197Y0258710D01*
X0019999Y0258702D01*
X0019800Y0258700D01*
X0019601Y0258702D01*
X0019403Y0258710D01*
X0019204Y0258722D01*
X0019006Y0258739D01*
X0018808Y0258761D01*
X0018611Y0258788D01*
X0018415Y0258819D01*
X0018220Y0258856D01*
X0018025Y0258897D01*
X0017832Y0258943D01*
X0017640Y0258993D01*
X0017449Y0259049D01*
X0017259Y0259109D01*
X0017071Y0259173D01*
X0016885Y0259243D01*
X0016700Y0259317D01*
X0016518Y0259395D01*
X0016337Y0259478D01*
X0016158Y0259565D01*
X0015982Y0259656D01*
X0015808Y0259752D01*
X0015636Y0259852D01*
X0015467Y0259957D01*
X0015300Y0260065D01*
X0015136Y0260178D01*
X0014975Y0260294D01*
X0014817Y0260414D01*
X0014661Y0260539D01*
X0014509Y0260667D01*
X0014360Y0260798D01*
X0014215Y0260934D01*
X0014072Y0261072D01*
X0013934Y0261215D01*
X0013798Y0261360D01*
X0013667Y0261509D01*
X0013539Y0261661D01*
X0013414Y0261817D01*
X0013294Y0261975D01*
X0013178Y0262136D01*
X0013065Y0262300D01*
X0012957Y0262467D01*
X0012852Y0262636D01*
X0012752Y0262808D01*
X0012656Y0262982D01*
X0012565Y0263158D01*
X0012478Y0263337D01*
X0012395Y0263518D01*
X0012317Y0263700D01*
X0012243Y0263885D01*
X0012173Y0264071D01*
X0012109Y0264259D01*
X0012049Y0264449D01*
X0011993Y0264640D01*
X0011943Y0264832D01*
X0011897Y0265025D01*
X0011856Y0265220D01*
X0011819Y0265415D01*
X0011788Y0265611D01*
X0011761Y0265808D01*
X0011739Y0266006D01*
X0011722Y0266204D01*
X0011710Y0266403D01*
X0011702Y0266601D01*
X0011700Y0266800D01*
X0195700Y0266800D02*
X0195702Y0266999D01*
X0195710Y0267197D01*
X0195722Y0267396D01*
X0195739Y0267594D01*
X0195761Y0267792D01*
X0195788Y0267989D01*
X0195819Y0268185D01*
X0195856Y0268380D01*
X0195897Y0268575D01*
X0195943Y0268768D01*
X0195993Y0268960D01*
X0196049Y0269151D01*
X0196109Y0269341D01*
X0196173Y0269529D01*
X0196243Y0269715D01*
X0196317Y0269900D01*
X0196395Y0270082D01*
X0196478Y0270263D01*
X0196565Y0270442D01*
X0196656Y0270618D01*
X0196752Y0270792D01*
X0196852Y0270964D01*
X0196957Y0271133D01*
X0197065Y0271300D01*
X0197178Y0271464D01*
X0197294Y0271625D01*
X0197414Y0271783D01*
X0197539Y0271939D01*
X0197667Y0272091D01*
X0197798Y0272240D01*
X0197934Y0272385D01*
X0198072Y0272528D01*
X0198215Y0272666D01*
X0198360Y0272802D01*
X0198509Y0272933D01*
X0198661Y0273061D01*
X0198817Y0273186D01*
X0198975Y0273306D01*
X0199136Y0273422D01*
X0199300Y0273535D01*
X0199467Y0273643D01*
X0199636Y0273748D01*
X0199808Y0273848D01*
X0199982Y0273944D01*
X0200158Y0274035D01*
X0200337Y0274122D01*
X0200518Y0274205D01*
X0200700Y0274283D01*
X0200885Y0274357D01*
X0201071Y0274427D01*
X0201259Y0274491D01*
X0201449Y0274551D01*
X0201640Y0274607D01*
X0201832Y0274657D01*
X0202025Y0274703D01*
X0202220Y0274744D01*
X0202415Y0274781D01*
X0202611Y0274812D01*
X0202808Y0274839D01*
X0203006Y0274861D01*
X0203204Y0274878D01*
X0203403Y0274890D01*
X0203601Y0274898D01*
X0203800Y0274900D01*
X0203999Y0274898D01*
X0204197Y0274890D01*
X0204396Y0274878D01*
X0204594Y0274861D01*
X0204792Y0274839D01*
X0204989Y0274812D01*
X0205185Y0274781D01*
X0205380Y0274744D01*
X0205575Y0274703D01*
X0205768Y0274657D01*
X0205960Y0274607D01*
X0206151Y0274551D01*
X0206341Y0274491D01*
X0206529Y0274427D01*
X0206715Y0274357D01*
X0206900Y0274283D01*
X0207082Y0274205D01*
X0207263Y0274122D01*
X0207442Y0274035D01*
X0207618Y0273944D01*
X0207792Y0273848D01*
X0207964Y0273748D01*
X0208133Y0273643D01*
X0208300Y0273535D01*
X0208464Y0273422D01*
X0208625Y0273306D01*
X0208783Y0273186D01*
X0208939Y0273061D01*
X0209091Y0272933D01*
X0209240Y0272802D01*
X0209385Y0272666D01*
X0209528Y0272528D01*
X0209666Y0272385D01*
X0209802Y0272240D01*
X0209933Y0272091D01*
X0210061Y0271939D01*
X0210186Y0271783D01*
X0210306Y0271625D01*
X0210422Y0271464D01*
X0210535Y0271300D01*
X0210643Y0271133D01*
X0210748Y0270964D01*
X0210848Y0270792D01*
X0210944Y0270618D01*
X0211035Y0270442D01*
X0211122Y0270263D01*
X0211205Y0270082D01*
X0211283Y0269900D01*
X0211357Y0269715D01*
X0211427Y0269529D01*
X0211491Y0269341D01*
X0211551Y0269151D01*
X0211607Y0268960D01*
X0211657Y0268768D01*
X0211703Y0268575D01*
X0211744Y0268380D01*
X0211781Y0268185D01*
X0211812Y0267989D01*
X0211839Y0267792D01*
X0211861Y0267594D01*
X0211878Y0267396D01*
X0211890Y0267197D01*
X0211898Y0266999D01*
X0211900Y0266800D01*
X0211898Y0266601D01*
X0211890Y0266403D01*
X0211878Y0266204D01*
X0211861Y0266006D01*
X0211839Y0265808D01*
X0211812Y0265611D01*
X0211781Y0265415D01*
X0211744Y0265220D01*
X0211703Y0265025D01*
X0211657Y0264832D01*
X0211607Y0264640D01*
X0211551Y0264449D01*
X0211491Y0264259D01*
X0211427Y0264071D01*
X0211357Y0263885D01*
X0211283Y0263700D01*
X0211205Y0263518D01*
X0211122Y0263337D01*
X0211035Y0263158D01*
X0210944Y0262982D01*
X0210848Y0262808D01*
X0210748Y0262636D01*
X0210643Y0262467D01*
X0210535Y0262300D01*
X0210422Y0262136D01*
X0210306Y0261975D01*
X0210186Y0261817D01*
X0210061Y0261661D01*
X0209933Y0261509D01*
X0209802Y0261360D01*
X0209666Y0261215D01*
X0209528Y0261072D01*
X0209385Y0260934D01*
X0209240Y0260798D01*
X0209091Y0260667D01*
X0208939Y0260539D01*
X0208783Y0260414D01*
X0208625Y0260294D01*
X0208464Y0260178D01*
X0208300Y0260065D01*
X0208133Y0259957D01*
X0207964Y0259852D01*
X0207792Y0259752D01*
X0207618Y0259656D01*
X0207442Y0259565D01*
X0207263Y0259478D01*
X0207082Y0259395D01*
X0206900Y0259317D01*
X0206715Y0259243D01*
X0206529Y0259173D01*
X0206341Y0259109D01*
X0206151Y0259049D01*
X0205960Y0258993D01*
X0205768Y0258943D01*
X0205575Y0258897D01*
X0205380Y0258856D01*
X0205185Y0258819D01*
X0204989Y0258788D01*
X0204792Y0258761D01*
X0204594Y0258739D01*
X0204396Y0258722D01*
X0204197Y0258710D01*
X0203999Y0258702D01*
X0203800Y0258700D01*
X0203601Y0258702D01*
X0203403Y0258710D01*
X0203204Y0258722D01*
X0203006Y0258739D01*
X0202808Y0258761D01*
X0202611Y0258788D01*
X0202415Y0258819D01*
X0202220Y0258856D01*
X0202025Y0258897D01*
X0201832Y0258943D01*
X0201640Y0258993D01*
X0201449Y0259049D01*
X0201259Y0259109D01*
X0201071Y0259173D01*
X0200885Y0259243D01*
X0200700Y0259317D01*
X0200518Y0259395D01*
X0200337Y0259478D01*
X0200158Y0259565D01*
X0199982Y0259656D01*
X0199808Y0259752D01*
X0199636Y0259852D01*
X0199467Y0259957D01*
X0199300Y0260065D01*
X0199136Y0260178D01*
X0198975Y0260294D01*
X0198817Y0260414D01*
X0198661Y0260539D01*
X0198509Y0260667D01*
X0198360Y0260798D01*
X0198215Y0260934D01*
X0198072Y0261072D01*
X0197934Y0261215D01*
X0197798Y0261360D01*
X0197667Y0261509D01*
X0197539Y0261661D01*
X0197414Y0261817D01*
X0197294Y0261975D01*
X0197178Y0262136D01*
X0197065Y0262300D01*
X0196957Y0262467D01*
X0196852Y0262636D01*
X0196752Y0262808D01*
X0196656Y0262982D01*
X0196565Y0263158D01*
X0196478Y0263337D01*
X0196395Y0263518D01*
X0196317Y0263700D01*
X0196243Y0263885D01*
X0196173Y0264071D01*
X0196109Y0264259D01*
X0196049Y0264449D01*
X0195993Y0264640D01*
X0195943Y0264832D01*
X0195897Y0265025D01*
X0195856Y0265220D01*
X0195819Y0265415D01*
X0195788Y0265611D01*
X0195761Y0265808D01*
X0195739Y0266006D01*
X0195722Y0266204D01*
X0195710Y0266403D01*
X0195702Y0266601D01*
X0195700Y0266800D01*
D11*
X0194300Y0193000D02*
X0191800Y0193000D01*
X0189300Y0193000D01*
X0189300Y0190500D02*
X0191800Y0190500D01*
X0194300Y0190500D01*
X0194300Y0123100D02*
X0191800Y0123100D01*
X0189300Y0123100D01*
X0189300Y0120600D02*
X0191800Y0120600D01*
X0194300Y0120600D01*
D12*
X0191800Y0120600D02*
X0191800Y0115800D01*
X0191800Y0123100D02*
X0191800Y0127800D01*
X0184800Y0135300D02*
X0184802Y0135360D01*
X0184807Y0135421D01*
X0184816Y0135480D01*
X0184829Y0135539D01*
X0184845Y0135598D01*
X0184865Y0135655D01*
X0184888Y0135710D01*
X0184915Y0135765D01*
X0184944Y0135817D01*
X0184977Y0135868D01*
X0185013Y0135917D01*
X0185051Y0135963D01*
X0185093Y0136007D01*
X0185137Y0136049D01*
X0185183Y0136087D01*
X0185232Y0136123D01*
X0185283Y0136156D01*
X0185335Y0136185D01*
X0185390Y0136212D01*
X0185445Y0136235D01*
X0185502Y0136255D01*
X0185561Y0136271D01*
X0185620Y0136284D01*
X0185679Y0136293D01*
X0185740Y0136298D01*
X0185800Y0136300D01*
X0197800Y0136300D01*
X0197860Y0136298D01*
X0197921Y0136293D01*
X0197980Y0136284D01*
X0198039Y0136271D01*
X0198098Y0136255D01*
X0198155Y0136235D01*
X0198210Y0136212D01*
X0198265Y0136185D01*
X0198317Y0136156D01*
X0198368Y0136123D01*
X0198417Y0136087D01*
X0198463Y0136049D01*
X0198507Y0136007D01*
X0198549Y0135963D01*
X0198587Y0135917D01*
X0198623Y0135868D01*
X0198656Y0135817D01*
X0198685Y0135765D01*
X0198712Y0135710D01*
X0198735Y0135655D01*
X0198755Y0135598D01*
X0198771Y0135539D01*
X0198784Y0135480D01*
X0198793Y0135421D01*
X0198798Y0135360D01*
X0198800Y0135300D01*
X0198800Y0108300D01*
X0198798Y0108240D01*
X0198793Y0108179D01*
X0198784Y0108120D01*
X0198771Y0108061D01*
X0198755Y0108002D01*
X0198735Y0107945D01*
X0198712Y0107890D01*
X0198685Y0107835D01*
X0198656Y0107783D01*
X0198623Y0107732D01*
X0198587Y0107683D01*
X0198549Y0107637D01*
X0198507Y0107593D01*
X0198463Y0107551D01*
X0198417Y0107513D01*
X0198368Y0107477D01*
X0198317Y0107444D01*
X0198265Y0107415D01*
X0198210Y0107388D01*
X0198155Y0107365D01*
X0198098Y0107345D01*
X0198039Y0107329D01*
X0197980Y0107316D01*
X0197921Y0107307D01*
X0197860Y0107302D01*
X0197800Y0107300D01*
X0185800Y0107300D01*
X0185740Y0107302D01*
X0185679Y0107307D01*
X0185620Y0107316D01*
X0185561Y0107329D01*
X0185502Y0107345D01*
X0185445Y0107365D01*
X0185390Y0107388D01*
X0185335Y0107415D01*
X0185283Y0107444D01*
X0185232Y0107477D01*
X0185183Y0107513D01*
X0185137Y0107551D01*
X0185093Y0107593D01*
X0185051Y0107637D01*
X0185013Y0107683D01*
X0184977Y0107732D01*
X0184944Y0107783D01*
X0184915Y0107835D01*
X0184888Y0107890D01*
X0184865Y0107945D01*
X0184845Y0108002D01*
X0184829Y0108061D01*
X0184816Y0108120D01*
X0184807Y0108179D01*
X0184802Y0108240D01*
X0184800Y0108300D01*
X0184800Y0135300D01*
X0185800Y0177300D02*
X0197800Y0177300D01*
X0197860Y0177302D01*
X0197921Y0177307D01*
X0197980Y0177316D01*
X0198039Y0177329D01*
X0198098Y0177345D01*
X0198155Y0177365D01*
X0198210Y0177388D01*
X0198265Y0177415D01*
X0198317Y0177444D01*
X0198368Y0177477D01*
X0198417Y0177513D01*
X0198463Y0177551D01*
X0198507Y0177593D01*
X0198549Y0177637D01*
X0198587Y0177683D01*
X0198623Y0177732D01*
X0198656Y0177783D01*
X0198685Y0177835D01*
X0198712Y0177890D01*
X0198735Y0177945D01*
X0198755Y0178002D01*
X0198771Y0178061D01*
X0198784Y0178120D01*
X0198793Y0178179D01*
X0198798Y0178240D01*
X0198800Y0178300D01*
X0198800Y0205300D01*
X0198798Y0205360D01*
X0198793Y0205421D01*
X0198784Y0205480D01*
X0198771Y0205539D01*
X0198755Y0205598D01*
X0198735Y0205655D01*
X0198712Y0205710D01*
X0198685Y0205765D01*
X0198656Y0205817D01*
X0198623Y0205868D01*
X0198587Y0205917D01*
X0198549Y0205963D01*
X0198507Y0206007D01*
X0198463Y0206049D01*
X0198417Y0206087D01*
X0198368Y0206123D01*
X0198317Y0206156D01*
X0198265Y0206185D01*
X0198210Y0206212D01*
X0198155Y0206235D01*
X0198098Y0206255D01*
X0198039Y0206271D01*
X0197980Y0206284D01*
X0197921Y0206293D01*
X0197860Y0206298D01*
X0197800Y0206300D01*
X0185800Y0206300D01*
X0185740Y0206298D01*
X0185679Y0206293D01*
X0185620Y0206284D01*
X0185561Y0206271D01*
X0185502Y0206255D01*
X0185445Y0206235D01*
X0185390Y0206212D01*
X0185335Y0206185D01*
X0185283Y0206156D01*
X0185232Y0206123D01*
X0185183Y0206087D01*
X0185137Y0206049D01*
X0185093Y0206007D01*
X0185051Y0205963D01*
X0185013Y0205917D01*
X0184977Y0205868D01*
X0184944Y0205817D01*
X0184915Y0205765D01*
X0184888Y0205710D01*
X0184865Y0205655D01*
X0184845Y0205598D01*
X0184829Y0205539D01*
X0184816Y0205480D01*
X0184807Y0205421D01*
X0184802Y0205360D01*
X0184800Y0205300D01*
X0184800Y0178300D01*
X0184802Y0178240D01*
X0184807Y0178179D01*
X0184816Y0178120D01*
X0184829Y0178061D01*
X0184845Y0178002D01*
X0184865Y0177945D01*
X0184888Y0177890D01*
X0184915Y0177835D01*
X0184944Y0177783D01*
X0184977Y0177732D01*
X0185013Y0177683D01*
X0185051Y0177637D01*
X0185093Y0177593D01*
X0185137Y0177551D01*
X0185183Y0177513D01*
X0185232Y0177477D01*
X0185283Y0177444D01*
X0185335Y0177415D01*
X0185390Y0177388D01*
X0185445Y0177365D01*
X0185502Y0177345D01*
X0185561Y0177329D01*
X0185620Y0177316D01*
X0185679Y0177307D01*
X0185740Y0177302D01*
X0185800Y0177300D01*
X0191800Y0185800D02*
X0191800Y0190500D01*
X0191800Y0193000D02*
X0191800Y0197800D01*
X0136800Y0181800D02*
X0136803Y0182045D01*
X0136812Y0182291D01*
X0136827Y0182536D01*
X0136848Y0182780D01*
X0136875Y0183024D01*
X0136908Y0183267D01*
X0136947Y0183510D01*
X0136992Y0183751D01*
X0137043Y0183991D01*
X0137100Y0184230D01*
X0137162Y0184467D01*
X0137231Y0184703D01*
X0137305Y0184937D01*
X0137385Y0185169D01*
X0137470Y0185399D01*
X0137561Y0185627D01*
X0137658Y0185852D01*
X0137760Y0186076D01*
X0137868Y0186296D01*
X0137981Y0186514D01*
X0138099Y0186729D01*
X0138223Y0186941D01*
X0138351Y0187150D01*
X0138485Y0187356D01*
X0138624Y0187558D01*
X0138768Y0187757D01*
X0138917Y0187952D01*
X0139070Y0188144D01*
X0139228Y0188332D01*
X0139390Y0188516D01*
X0139558Y0188695D01*
X0139729Y0188871D01*
X0139905Y0189042D01*
X0140084Y0189210D01*
X0140268Y0189372D01*
X0140456Y0189530D01*
X0140648Y0189683D01*
X0140843Y0189832D01*
X0141042Y0189976D01*
X0141244Y0190115D01*
X0141450Y0190249D01*
X0141659Y0190377D01*
X0141871Y0190501D01*
X0142086Y0190619D01*
X0142304Y0190732D01*
X0142524Y0190840D01*
X0142748Y0190942D01*
X0142973Y0191039D01*
X0143201Y0191130D01*
X0143431Y0191215D01*
X0143663Y0191295D01*
X0143897Y0191369D01*
X0144133Y0191438D01*
X0144370Y0191500D01*
X0144609Y0191557D01*
X0144849Y0191608D01*
X0145090Y0191653D01*
X0145333Y0191692D01*
X0145576Y0191725D01*
X0145820Y0191752D01*
X0146064Y0191773D01*
X0146309Y0191788D01*
X0146555Y0191797D01*
X0146800Y0191800D01*
X0147045Y0191797D01*
X0147291Y0191788D01*
X0147536Y0191773D01*
X0147780Y0191752D01*
X0148024Y0191725D01*
X0148267Y0191692D01*
X0148510Y0191653D01*
X0148751Y0191608D01*
X0148991Y0191557D01*
X0149230Y0191500D01*
X0149467Y0191438D01*
X0149703Y0191369D01*
X0149937Y0191295D01*
X0150169Y0191215D01*
X0150399Y0191130D01*
X0150627Y0191039D01*
X0150852Y0190942D01*
X0151076Y0190840D01*
X0151296Y0190732D01*
X0151514Y0190619D01*
X0151729Y0190501D01*
X0151941Y0190377D01*
X0152150Y0190249D01*
X0152356Y0190115D01*
X0152558Y0189976D01*
X0152757Y0189832D01*
X0152952Y0189683D01*
X0153144Y0189530D01*
X0153332Y0189372D01*
X0153516Y0189210D01*
X0153695Y0189042D01*
X0153871Y0188871D01*
X0154042Y0188695D01*
X0154210Y0188516D01*
X0154372Y0188332D01*
X0154530Y0188144D01*
X0154683Y0187952D01*
X0154832Y0187757D01*
X0154976Y0187558D01*
X0155115Y0187356D01*
X0155249Y0187150D01*
X0155377Y0186941D01*
X0155501Y0186729D01*
X0155619Y0186514D01*
X0155732Y0186296D01*
X0155840Y0186076D01*
X0155942Y0185852D01*
X0156039Y0185627D01*
X0156130Y0185399D01*
X0156215Y0185169D01*
X0156295Y0184937D01*
X0156369Y0184703D01*
X0156438Y0184467D01*
X0156500Y0184230D01*
X0156557Y0183991D01*
X0156608Y0183751D01*
X0156653Y0183510D01*
X0156692Y0183267D01*
X0156725Y0183024D01*
X0156752Y0182780D01*
X0156773Y0182536D01*
X0156788Y0182291D01*
X0156797Y0182045D01*
X0156800Y0181800D01*
X0156797Y0181555D01*
X0156788Y0181309D01*
X0156773Y0181064D01*
X0156752Y0180820D01*
X0156725Y0180576D01*
X0156692Y0180333D01*
X0156653Y0180090D01*
X0156608Y0179849D01*
X0156557Y0179609D01*
X0156500Y0179370D01*
X0156438Y0179133D01*
X0156369Y0178897D01*
X0156295Y0178663D01*
X0156215Y0178431D01*
X0156130Y0178201D01*
X0156039Y0177973D01*
X0155942Y0177748D01*
X0155840Y0177524D01*
X0155732Y0177304D01*
X0155619Y0177086D01*
X0155501Y0176871D01*
X0155377Y0176659D01*
X0155249Y0176450D01*
X0155115Y0176244D01*
X0154976Y0176042D01*
X0154832Y0175843D01*
X0154683Y0175648D01*
X0154530Y0175456D01*
X0154372Y0175268D01*
X0154210Y0175084D01*
X0154042Y0174905D01*
X0153871Y0174729D01*
X0153695Y0174558D01*
X0153516Y0174390D01*
X0153332Y0174228D01*
X0153144Y0174070D01*
X0152952Y0173917D01*
X0152757Y0173768D01*
X0152558Y0173624D01*
X0152356Y0173485D01*
X0152150Y0173351D01*
X0151941Y0173223D01*
X0151729Y0173099D01*
X0151514Y0172981D01*
X0151296Y0172868D01*
X0151076Y0172760D01*
X0150852Y0172658D01*
X0150627Y0172561D01*
X0150399Y0172470D01*
X0150169Y0172385D01*
X0149937Y0172305D01*
X0149703Y0172231D01*
X0149467Y0172162D01*
X0149230Y0172100D01*
X0148991Y0172043D01*
X0148751Y0171992D01*
X0148510Y0171947D01*
X0148267Y0171908D01*
X0148024Y0171875D01*
X0147780Y0171848D01*
X0147536Y0171827D01*
X0147291Y0171812D01*
X0147045Y0171803D01*
X0146800Y0171800D01*
X0146555Y0171803D01*
X0146309Y0171812D01*
X0146064Y0171827D01*
X0145820Y0171848D01*
X0145576Y0171875D01*
X0145333Y0171908D01*
X0145090Y0171947D01*
X0144849Y0171992D01*
X0144609Y0172043D01*
X0144370Y0172100D01*
X0144133Y0172162D01*
X0143897Y0172231D01*
X0143663Y0172305D01*
X0143431Y0172385D01*
X0143201Y0172470D01*
X0142973Y0172561D01*
X0142748Y0172658D01*
X0142524Y0172760D01*
X0142304Y0172868D01*
X0142086Y0172981D01*
X0141871Y0173099D01*
X0141659Y0173223D01*
X0141450Y0173351D01*
X0141244Y0173485D01*
X0141042Y0173624D01*
X0140843Y0173768D01*
X0140648Y0173917D01*
X0140456Y0174070D01*
X0140268Y0174228D01*
X0140084Y0174390D01*
X0139905Y0174558D01*
X0139729Y0174729D01*
X0139558Y0174905D01*
X0139390Y0175084D01*
X0139228Y0175268D01*
X0139070Y0175456D01*
X0138917Y0175648D01*
X0138768Y0175843D01*
X0138624Y0176042D01*
X0138485Y0176244D01*
X0138351Y0176450D01*
X0138223Y0176659D01*
X0138099Y0176871D01*
X0137981Y0177086D01*
X0137868Y0177304D01*
X0137760Y0177524D01*
X0137658Y0177748D01*
X0137561Y0177973D01*
X0137470Y0178201D01*
X0137385Y0178431D01*
X0137305Y0178663D01*
X0137231Y0178897D01*
X0137162Y0179133D01*
X0137100Y0179370D01*
X0137043Y0179609D01*
X0136992Y0179849D01*
X0136947Y0180090D01*
X0136908Y0180333D01*
X0136875Y0180576D01*
X0136848Y0180820D01*
X0136827Y0181064D01*
X0136812Y0181309D01*
X0136803Y0181555D01*
X0136800Y0181800D01*
X0142800Y0187800D02*
X0142800Y0189800D01*
X0141800Y0188800D02*
X0143800Y0188800D01*
X0142800Y0149800D02*
X0142800Y0147800D01*
X0141800Y0148800D02*
X0143800Y0148800D01*
X0136800Y0141800D02*
X0136803Y0142045D01*
X0136812Y0142291D01*
X0136827Y0142536D01*
X0136848Y0142780D01*
X0136875Y0143024D01*
X0136908Y0143267D01*
X0136947Y0143510D01*
X0136992Y0143751D01*
X0137043Y0143991D01*
X0137100Y0144230D01*
X0137162Y0144467D01*
X0137231Y0144703D01*
X0137305Y0144937D01*
X0137385Y0145169D01*
X0137470Y0145399D01*
X0137561Y0145627D01*
X0137658Y0145852D01*
X0137760Y0146076D01*
X0137868Y0146296D01*
X0137981Y0146514D01*
X0138099Y0146729D01*
X0138223Y0146941D01*
X0138351Y0147150D01*
X0138485Y0147356D01*
X0138624Y0147558D01*
X0138768Y0147757D01*
X0138917Y0147952D01*
X0139070Y0148144D01*
X0139228Y0148332D01*
X0139390Y0148516D01*
X0139558Y0148695D01*
X0139729Y0148871D01*
X0139905Y0149042D01*
X0140084Y0149210D01*
X0140268Y0149372D01*
X0140456Y0149530D01*
X0140648Y0149683D01*
X0140843Y0149832D01*
X0141042Y0149976D01*
X0141244Y0150115D01*
X0141450Y0150249D01*
X0141659Y0150377D01*
X0141871Y0150501D01*
X0142086Y0150619D01*
X0142304Y0150732D01*
X0142524Y0150840D01*
X0142748Y0150942D01*
X0142973Y0151039D01*
X0143201Y0151130D01*
X0143431Y0151215D01*
X0143663Y0151295D01*
X0143897Y0151369D01*
X0144133Y0151438D01*
X0144370Y0151500D01*
X0144609Y0151557D01*
X0144849Y0151608D01*
X0145090Y0151653D01*
X0145333Y0151692D01*
X0145576Y0151725D01*
X0145820Y0151752D01*
X0146064Y0151773D01*
X0146309Y0151788D01*
X0146555Y0151797D01*
X0146800Y0151800D01*
X0147045Y0151797D01*
X0147291Y0151788D01*
X0147536Y0151773D01*
X0147780Y0151752D01*
X0148024Y0151725D01*
X0148267Y0151692D01*
X0148510Y0151653D01*
X0148751Y0151608D01*
X0148991Y0151557D01*
X0149230Y0151500D01*
X0149467Y0151438D01*
X0149703Y0151369D01*
X0149937Y0151295D01*
X0150169Y0151215D01*
X0150399Y0151130D01*
X0150627Y0151039D01*
X0150852Y0150942D01*
X0151076Y0150840D01*
X0151296Y0150732D01*
X0151514Y0150619D01*
X0151729Y0150501D01*
X0151941Y0150377D01*
X0152150Y0150249D01*
X0152356Y0150115D01*
X0152558Y0149976D01*
X0152757Y0149832D01*
X0152952Y0149683D01*
X0153144Y0149530D01*
X0153332Y0149372D01*
X0153516Y0149210D01*
X0153695Y0149042D01*
X0153871Y0148871D01*
X0154042Y0148695D01*
X0154210Y0148516D01*
X0154372Y0148332D01*
X0154530Y0148144D01*
X0154683Y0147952D01*
X0154832Y0147757D01*
X0154976Y0147558D01*
X0155115Y0147356D01*
X0155249Y0147150D01*
X0155377Y0146941D01*
X0155501Y0146729D01*
X0155619Y0146514D01*
X0155732Y0146296D01*
X0155840Y0146076D01*
X0155942Y0145852D01*
X0156039Y0145627D01*
X0156130Y0145399D01*
X0156215Y0145169D01*
X0156295Y0144937D01*
X0156369Y0144703D01*
X0156438Y0144467D01*
X0156500Y0144230D01*
X0156557Y0143991D01*
X0156608Y0143751D01*
X0156653Y0143510D01*
X0156692Y0143267D01*
X0156725Y0143024D01*
X0156752Y0142780D01*
X0156773Y0142536D01*
X0156788Y0142291D01*
X0156797Y0142045D01*
X0156800Y0141800D01*
X0156797Y0141555D01*
X0156788Y0141309D01*
X0156773Y0141064D01*
X0156752Y0140820D01*
X0156725Y0140576D01*
X0156692Y0140333D01*
X0156653Y0140090D01*
X0156608Y0139849D01*
X0156557Y0139609D01*
X0156500Y0139370D01*
X0156438Y0139133D01*
X0156369Y0138897D01*
X0156295Y0138663D01*
X0156215Y0138431D01*
X0156130Y0138201D01*
X0156039Y0137973D01*
X0155942Y0137748D01*
X0155840Y0137524D01*
X0155732Y0137304D01*
X0155619Y0137086D01*
X0155501Y0136871D01*
X0155377Y0136659D01*
X0155249Y0136450D01*
X0155115Y0136244D01*
X0154976Y0136042D01*
X0154832Y0135843D01*
X0154683Y0135648D01*
X0154530Y0135456D01*
X0154372Y0135268D01*
X0154210Y0135084D01*
X0154042Y0134905D01*
X0153871Y0134729D01*
X0153695Y0134558D01*
X0153516Y0134390D01*
X0153332Y0134228D01*
X0153144Y0134070D01*
X0152952Y0133917D01*
X0152757Y0133768D01*
X0152558Y0133624D01*
X0152356Y0133485D01*
X0152150Y0133351D01*
X0151941Y0133223D01*
X0151729Y0133099D01*
X0151514Y0132981D01*
X0151296Y0132868D01*
X0151076Y0132760D01*
X0150852Y0132658D01*
X0150627Y0132561D01*
X0150399Y0132470D01*
X0150169Y0132385D01*
X0149937Y0132305D01*
X0149703Y0132231D01*
X0149467Y0132162D01*
X0149230Y0132100D01*
X0148991Y0132043D01*
X0148751Y0131992D01*
X0148510Y0131947D01*
X0148267Y0131908D01*
X0148024Y0131875D01*
X0147780Y0131848D01*
X0147536Y0131827D01*
X0147291Y0131812D01*
X0147045Y0131803D01*
X0146800Y0131800D01*
X0146555Y0131803D01*
X0146309Y0131812D01*
X0146064Y0131827D01*
X0145820Y0131848D01*
X0145576Y0131875D01*
X0145333Y0131908D01*
X0145090Y0131947D01*
X0144849Y0131992D01*
X0144609Y0132043D01*
X0144370Y0132100D01*
X0144133Y0132162D01*
X0143897Y0132231D01*
X0143663Y0132305D01*
X0143431Y0132385D01*
X0143201Y0132470D01*
X0142973Y0132561D01*
X0142748Y0132658D01*
X0142524Y0132760D01*
X0142304Y0132868D01*
X0142086Y0132981D01*
X0141871Y0133099D01*
X0141659Y0133223D01*
X0141450Y0133351D01*
X0141244Y0133485D01*
X0141042Y0133624D01*
X0140843Y0133768D01*
X0140648Y0133917D01*
X0140456Y0134070D01*
X0140268Y0134228D01*
X0140084Y0134390D01*
X0139905Y0134558D01*
X0139729Y0134729D01*
X0139558Y0134905D01*
X0139390Y0135084D01*
X0139228Y0135268D01*
X0139070Y0135456D01*
X0138917Y0135648D01*
X0138768Y0135843D01*
X0138624Y0136042D01*
X0138485Y0136244D01*
X0138351Y0136450D01*
X0138223Y0136659D01*
X0138099Y0136871D01*
X0137981Y0137086D01*
X0137868Y0137304D01*
X0137760Y0137524D01*
X0137658Y0137748D01*
X0137561Y0137973D01*
X0137470Y0138201D01*
X0137385Y0138431D01*
X0137305Y0138663D01*
X0137231Y0138897D01*
X0137162Y0139133D01*
X0137100Y0139370D01*
X0137043Y0139609D01*
X0136992Y0139849D01*
X0136947Y0140090D01*
X0136908Y0140333D01*
X0136875Y0140576D01*
X0136848Y0140820D01*
X0136827Y0141064D01*
X0136812Y0141309D01*
X0136803Y0141555D01*
X0136800Y0141800D01*
X0142800Y0119800D02*
X0142800Y0117800D01*
X0141800Y0118800D02*
X0143800Y0118800D01*
X0136800Y0111800D02*
X0136803Y0112045D01*
X0136812Y0112291D01*
X0136827Y0112536D01*
X0136848Y0112780D01*
X0136875Y0113024D01*
X0136908Y0113267D01*
X0136947Y0113510D01*
X0136992Y0113751D01*
X0137043Y0113991D01*
X0137100Y0114230D01*
X0137162Y0114467D01*
X0137231Y0114703D01*
X0137305Y0114937D01*
X0137385Y0115169D01*
X0137470Y0115399D01*
X0137561Y0115627D01*
X0137658Y0115852D01*
X0137760Y0116076D01*
X0137868Y0116296D01*
X0137981Y0116514D01*
X0138099Y0116729D01*
X0138223Y0116941D01*
X0138351Y0117150D01*
X0138485Y0117356D01*
X0138624Y0117558D01*
X0138768Y0117757D01*
X0138917Y0117952D01*
X0139070Y0118144D01*
X0139228Y0118332D01*
X0139390Y0118516D01*
X0139558Y0118695D01*
X0139729Y0118871D01*
X0139905Y0119042D01*
X0140084Y0119210D01*
X0140268Y0119372D01*
X0140456Y0119530D01*
X0140648Y0119683D01*
X0140843Y0119832D01*
X0141042Y0119976D01*
X0141244Y0120115D01*
X0141450Y0120249D01*
X0141659Y0120377D01*
X0141871Y0120501D01*
X0142086Y0120619D01*
X0142304Y0120732D01*
X0142524Y0120840D01*
X0142748Y0120942D01*
X0142973Y0121039D01*
X0143201Y0121130D01*
X0143431Y0121215D01*
X0143663Y0121295D01*
X0143897Y0121369D01*
X0144133Y0121438D01*
X0144370Y0121500D01*
X0144609Y0121557D01*
X0144849Y0121608D01*
X0145090Y0121653D01*
X0145333Y0121692D01*
X0145576Y0121725D01*
X0145820Y0121752D01*
X0146064Y0121773D01*
X0146309Y0121788D01*
X0146555Y0121797D01*
X0146800Y0121800D01*
X0147045Y0121797D01*
X0147291Y0121788D01*
X0147536Y0121773D01*
X0147780Y0121752D01*
X0148024Y0121725D01*
X0148267Y0121692D01*
X0148510Y0121653D01*
X0148751Y0121608D01*
X0148991Y0121557D01*
X0149230Y0121500D01*
X0149467Y0121438D01*
X0149703Y0121369D01*
X0149937Y0121295D01*
X0150169Y0121215D01*
X0150399Y0121130D01*
X0150627Y0121039D01*
X0150852Y0120942D01*
X0151076Y0120840D01*
X0151296Y0120732D01*
X0151514Y0120619D01*
X0151729Y0120501D01*
X0151941Y0120377D01*
X0152150Y0120249D01*
X0152356Y0120115D01*
X0152558Y0119976D01*
X0152757Y0119832D01*
X0152952Y0119683D01*
X0153144Y0119530D01*
X0153332Y0119372D01*
X0153516Y0119210D01*
X0153695Y0119042D01*
X0153871Y0118871D01*
X0154042Y0118695D01*
X0154210Y0118516D01*
X0154372Y0118332D01*
X0154530Y0118144D01*
X0154683Y0117952D01*
X0154832Y0117757D01*
X0154976Y0117558D01*
X0155115Y0117356D01*
X0155249Y0117150D01*
X0155377Y0116941D01*
X0155501Y0116729D01*
X0155619Y0116514D01*
X0155732Y0116296D01*
X0155840Y0116076D01*
X0155942Y0115852D01*
X0156039Y0115627D01*
X0156130Y0115399D01*
X0156215Y0115169D01*
X0156295Y0114937D01*
X0156369Y0114703D01*
X0156438Y0114467D01*
X0156500Y0114230D01*
X0156557Y0113991D01*
X0156608Y0113751D01*
X0156653Y0113510D01*
X0156692Y0113267D01*
X0156725Y0113024D01*
X0156752Y0112780D01*
X0156773Y0112536D01*
X0156788Y0112291D01*
X0156797Y0112045D01*
X0156800Y0111800D01*
X0156797Y0111555D01*
X0156788Y0111309D01*
X0156773Y0111064D01*
X0156752Y0110820D01*
X0156725Y0110576D01*
X0156692Y0110333D01*
X0156653Y0110090D01*
X0156608Y0109849D01*
X0156557Y0109609D01*
X0156500Y0109370D01*
X0156438Y0109133D01*
X0156369Y0108897D01*
X0156295Y0108663D01*
X0156215Y0108431D01*
X0156130Y0108201D01*
X0156039Y0107973D01*
X0155942Y0107748D01*
X0155840Y0107524D01*
X0155732Y0107304D01*
X0155619Y0107086D01*
X0155501Y0106871D01*
X0155377Y0106659D01*
X0155249Y0106450D01*
X0155115Y0106244D01*
X0154976Y0106042D01*
X0154832Y0105843D01*
X0154683Y0105648D01*
X0154530Y0105456D01*
X0154372Y0105268D01*
X0154210Y0105084D01*
X0154042Y0104905D01*
X0153871Y0104729D01*
X0153695Y0104558D01*
X0153516Y0104390D01*
X0153332Y0104228D01*
X0153144Y0104070D01*
X0152952Y0103917D01*
X0152757Y0103768D01*
X0152558Y0103624D01*
X0152356Y0103485D01*
X0152150Y0103351D01*
X0151941Y0103223D01*
X0151729Y0103099D01*
X0151514Y0102981D01*
X0151296Y0102868D01*
X0151076Y0102760D01*
X0150852Y0102658D01*
X0150627Y0102561D01*
X0150399Y0102470D01*
X0150169Y0102385D01*
X0149937Y0102305D01*
X0149703Y0102231D01*
X0149467Y0102162D01*
X0149230Y0102100D01*
X0148991Y0102043D01*
X0148751Y0101992D01*
X0148510Y0101947D01*
X0148267Y0101908D01*
X0148024Y0101875D01*
X0147780Y0101848D01*
X0147536Y0101827D01*
X0147291Y0101812D01*
X0147045Y0101803D01*
X0146800Y0101800D01*
X0146555Y0101803D01*
X0146309Y0101812D01*
X0146064Y0101827D01*
X0145820Y0101848D01*
X0145576Y0101875D01*
X0145333Y0101908D01*
X0145090Y0101947D01*
X0144849Y0101992D01*
X0144609Y0102043D01*
X0144370Y0102100D01*
X0144133Y0102162D01*
X0143897Y0102231D01*
X0143663Y0102305D01*
X0143431Y0102385D01*
X0143201Y0102470D01*
X0142973Y0102561D01*
X0142748Y0102658D01*
X0142524Y0102760D01*
X0142304Y0102868D01*
X0142086Y0102981D01*
X0141871Y0103099D01*
X0141659Y0103223D01*
X0141450Y0103351D01*
X0141244Y0103485D01*
X0141042Y0103624D01*
X0140843Y0103768D01*
X0140648Y0103917D01*
X0140456Y0104070D01*
X0140268Y0104228D01*
X0140084Y0104390D01*
X0139905Y0104558D01*
X0139729Y0104729D01*
X0139558Y0104905D01*
X0139390Y0105084D01*
X0139228Y0105268D01*
X0139070Y0105456D01*
X0138917Y0105648D01*
X0138768Y0105843D01*
X0138624Y0106042D01*
X0138485Y0106244D01*
X0138351Y0106450D01*
X0138223Y0106659D01*
X0138099Y0106871D01*
X0137981Y0107086D01*
X0137868Y0107304D01*
X0137760Y0107524D01*
X0137658Y0107748D01*
X0137561Y0107973D01*
X0137470Y0108201D01*
X0137385Y0108431D01*
X0137305Y0108663D01*
X0137231Y0108897D01*
X0137162Y0109133D01*
X0137100Y0109370D01*
X0137043Y0109609D01*
X0136992Y0109849D01*
X0136947Y0110090D01*
X0136908Y0110333D01*
X0136875Y0110576D01*
X0136848Y0110820D01*
X0136827Y0111064D01*
X0136812Y0111309D01*
X0136803Y0111555D01*
X0136800Y0111800D01*
X0151800Y0067300D02*
X0102800Y0067300D01*
X0102800Y0063800D01*
X0096800Y0063800D01*
X0096800Y0067300D01*
X0089300Y0067300D01*
X0089300Y0026300D01*
X0096800Y0026300D01*
X0096800Y0029800D01*
X0102800Y0029800D01*
X0102800Y0026300D01*
X0151800Y0026300D01*
X0151800Y0067300D01*
X0102800Y0109000D02*
X0102800Y0112900D01*
X0102800Y0109000D02*
X0070800Y0109000D01*
X0070800Y0112900D01*
X0070800Y0120700D02*
X0070800Y0122900D01*
X0070800Y0130700D02*
X0070800Y0132900D01*
X0070800Y0140700D02*
X0070800Y0142900D01*
X0070800Y0150700D02*
X0070800Y0152900D01*
X0070800Y0160700D02*
X0070800Y0162900D01*
X0070800Y0170700D02*
X0070800Y0172900D01*
X0070800Y0180700D02*
X0070800Y0182900D01*
X0070800Y0190700D02*
X0070800Y0192900D01*
X0070800Y0200700D02*
X0070800Y0202700D01*
X0070800Y0210900D02*
X0070800Y0214600D01*
X0102800Y0214600D01*
X0102800Y0210700D01*
X0102800Y0202900D02*
X0102800Y0200700D01*
X0102800Y0192900D02*
X0102800Y0190700D01*
X0102800Y0182900D02*
X0102800Y0180700D01*
X0102800Y0172900D02*
X0102800Y0170700D01*
X0102800Y0162900D02*
X0102800Y0160700D01*
X0102800Y0152900D02*
X0102800Y0150700D01*
X0102800Y0142900D02*
X0102800Y0140700D01*
X0102800Y0132900D02*
X0102800Y0130700D01*
X0102800Y0122900D02*
X0102800Y0120700D01*
X0103466Y0230100D02*
X0101331Y0230100D01*
X0100263Y0231168D01*
X0100263Y0235438D01*
X0101331Y0236505D01*
X0103466Y0236505D01*
X0104534Y0235438D01*
X0104534Y0231168D01*
X0103466Y0230100D01*
X0106709Y0230100D02*
X0106709Y0236505D01*
X0109912Y0236505D01*
X0110979Y0235438D01*
X0110979Y0233303D01*
X0109912Y0232235D01*
X0106709Y0232235D01*
X0108844Y0232235D02*
X0110979Y0230100D01*
X0115290Y0230100D02*
X0115290Y0236505D01*
X0117425Y0236505D02*
X0113154Y0236505D01*
X0098088Y0235438D02*
X0098088Y0233303D01*
X0097021Y0232235D01*
X0093818Y0232235D01*
X0093818Y0230100D02*
X0093818Y0236505D01*
X0097021Y0236505D01*
X0098088Y0235438D01*
X0091643Y0230100D02*
X0087372Y0230100D01*
X0087372Y0236505D01*
X0085197Y0236505D02*
X0080927Y0236505D01*
X0080927Y0230100D01*
X0085197Y0230100D01*
X0083062Y0233303D02*
X0080927Y0233303D01*
X0078752Y0230100D02*
X0074481Y0230100D01*
X0074481Y0236505D01*
X0072306Y0230100D02*
X0068036Y0230100D01*
X0068036Y0236505D01*
X0065861Y0234370D02*
X0065861Y0230100D01*
X0065861Y0233303D02*
X0061590Y0233303D01*
X0061590Y0234370D02*
X0063726Y0236505D01*
X0065861Y0234370D01*
X0061590Y0234370D02*
X0061590Y0230100D01*
X0059415Y0230100D02*
X0057280Y0232235D01*
X0058348Y0232235D02*
X0055145Y0232235D01*
X0055145Y0230100D02*
X0055145Y0236505D01*
X0058348Y0236505D01*
X0059415Y0235438D01*
X0059415Y0233303D01*
X0058348Y0232235D01*
X0052970Y0233303D02*
X0048699Y0233303D01*
X0048699Y0234370D02*
X0050835Y0236505D01*
X0052970Y0234370D01*
X0052970Y0230100D01*
X0048699Y0230100D02*
X0048699Y0234370D01*
X0046524Y0233303D02*
X0045457Y0232235D01*
X0042254Y0232235D01*
X0042254Y0230100D02*
X0042254Y0236505D01*
X0045457Y0236505D01*
X0046524Y0235438D01*
X0046524Y0233303D01*
D13*
X0043300Y0250800D02*
X0042200Y0250900D01*
X0041000Y0251200D01*
X0040100Y0251700D01*
X0038600Y0252700D01*
X0037600Y0253800D01*
X0036500Y0255500D01*
X0036000Y0257200D01*
X0035800Y0258800D01*
X0036000Y0260200D01*
X0036300Y0261300D01*
X0042800Y0277300D01*
X0043300Y0278300D01*
X0044800Y0280300D01*
X0045800Y0281300D01*
X0047800Y0282300D01*
X0048400Y0282500D01*
X0049500Y0282700D01*
X0050300Y0282800D01*
X0173300Y0282800D01*
X0174100Y0282700D01*
X0175200Y0282500D01*
X0175800Y0282300D01*
X0177800Y0281300D01*
X0178800Y0280300D01*
X0180300Y0278300D01*
X0180800Y0277300D01*
X0187300Y0261300D01*
X0187600Y0260200D01*
X0187800Y0258800D01*
X0187600Y0257200D01*
X0187100Y0255500D01*
X0186000Y0253800D01*
X0185000Y0252700D01*
X0183500Y0251700D01*
X0182600Y0251200D01*
X0181400Y0250900D01*
X0180300Y0250800D01*
X0043300Y0250800D01*
X0011500Y0266800D02*
X0011502Y0267004D01*
X0011510Y0267207D01*
X0011522Y0267411D01*
X0011540Y0267614D01*
X0011562Y0267816D01*
X0011590Y0268018D01*
X0011622Y0268219D01*
X0011659Y0268419D01*
X0011702Y0268619D01*
X0011749Y0268817D01*
X0011801Y0269014D01*
X0011857Y0269209D01*
X0011919Y0269404D01*
X0011985Y0269596D01*
X0012056Y0269787D01*
X0012132Y0269976D01*
X0012212Y0270164D01*
X0012297Y0270349D01*
X0012386Y0270532D01*
X0012480Y0270713D01*
X0012578Y0270891D01*
X0012681Y0271067D01*
X0012788Y0271240D01*
X0012899Y0271411D01*
X0013014Y0271579D01*
X0013133Y0271744D01*
X0013257Y0271906D01*
X0013384Y0272065D01*
X0013515Y0272221D01*
X0013650Y0272374D01*
X0013789Y0272523D01*
X0013931Y0272669D01*
X0014077Y0272811D01*
X0014226Y0272950D01*
X0014379Y0273085D01*
X0014535Y0273216D01*
X0014694Y0273343D01*
X0014856Y0273467D01*
X0015021Y0273586D01*
X0015189Y0273701D01*
X0015360Y0273812D01*
X0015533Y0273919D01*
X0015709Y0274022D01*
X0015887Y0274120D01*
X0016068Y0274214D01*
X0016251Y0274303D01*
X0016436Y0274388D01*
X0016624Y0274468D01*
X0016813Y0274544D01*
X0017004Y0274615D01*
X0017196Y0274681D01*
X0017391Y0274743D01*
X0017586Y0274799D01*
X0017783Y0274851D01*
X0017981Y0274898D01*
X0018181Y0274941D01*
X0018381Y0274978D01*
X0018582Y0275010D01*
X0018784Y0275038D01*
X0018986Y0275060D01*
X0019189Y0275078D01*
X0019393Y0275090D01*
X0019596Y0275098D01*
X0019800Y0275100D01*
X0020004Y0275098D01*
X0020207Y0275090D01*
X0020411Y0275078D01*
X0020614Y0275060D01*
X0020816Y0275038D01*
X0021018Y0275010D01*
X0021219Y0274978D01*
X0021419Y0274941D01*
X0021619Y0274898D01*
X0021817Y0274851D01*
X0022014Y0274799D01*
X0022209Y0274743D01*
X0022404Y0274681D01*
X0022596Y0274615D01*
X0022787Y0274544D01*
X0022976Y0274468D01*
X0023164Y0274388D01*
X0023349Y0274303D01*
X0023532Y0274214D01*
X0023713Y0274120D01*
X0023891Y0274022D01*
X0024067Y0273919D01*
X0024240Y0273812D01*
X0024411Y0273701D01*
X0024579Y0273586D01*
X0024744Y0273467D01*
X0024906Y0273343D01*
X0025065Y0273216D01*
X0025221Y0273085D01*
X0025374Y0272950D01*
X0025523Y0272811D01*
X0025669Y0272669D01*
X0025811Y0272523D01*
X0025950Y0272374D01*
X0026085Y0272221D01*
X0026216Y0272065D01*
X0026343Y0271906D01*
X0026467Y0271744D01*
X0026586Y0271579D01*
X0026701Y0271411D01*
X0026812Y0271240D01*
X0026919Y0271067D01*
X0027022Y0270891D01*
X0027120Y0270713D01*
X0027214Y0270532D01*
X0027303Y0270349D01*
X0027388Y0270164D01*
X0027468Y0269976D01*
X0027544Y0269787D01*
X0027615Y0269596D01*
X0027681Y0269404D01*
X0027743Y0269209D01*
X0027799Y0269014D01*
X0027851Y0268817D01*
X0027898Y0268619D01*
X0027941Y0268419D01*
X0027978Y0268219D01*
X0028010Y0268018D01*
X0028038Y0267816D01*
X0028060Y0267614D01*
X0028078Y0267411D01*
X0028090Y0267207D01*
X0028098Y0267004D01*
X0028100Y0266800D01*
X0028098Y0266596D01*
X0028090Y0266393D01*
X0028078Y0266189D01*
X0028060Y0265986D01*
X0028038Y0265784D01*
X0028010Y0265582D01*
X0027978Y0265381D01*
X0027941Y0265181D01*
X0027898Y0264981D01*
X0027851Y0264783D01*
X0027799Y0264586D01*
X0027743Y0264391D01*
X0027681Y0264196D01*
X0027615Y0264004D01*
X0027544Y0263813D01*
X0027468Y0263624D01*
X0027388Y0263436D01*
X0027303Y0263251D01*
X0027214Y0263068D01*
X0027120Y0262887D01*
X0027022Y0262709D01*
X0026919Y0262533D01*
X0026812Y0262360D01*
X0026701Y0262189D01*
X0026586Y0262021D01*
X0026467Y0261856D01*
X0026343Y0261694D01*
X0026216Y0261535D01*
X0026085Y0261379D01*
X0025950Y0261226D01*
X0025811Y0261077D01*
X0025669Y0260931D01*
X0025523Y0260789D01*
X0025374Y0260650D01*
X0025221Y0260515D01*
X0025065Y0260384D01*
X0024906Y0260257D01*
X0024744Y0260133D01*
X0024579Y0260014D01*
X0024411Y0259899D01*
X0024240Y0259788D01*
X0024067Y0259681D01*
X0023891Y0259578D01*
X0023713Y0259480D01*
X0023532Y0259386D01*
X0023349Y0259297D01*
X0023164Y0259212D01*
X0022976Y0259132D01*
X0022787Y0259056D01*
X0022596Y0258985D01*
X0022404Y0258919D01*
X0022209Y0258857D01*
X0022014Y0258801D01*
X0021817Y0258749D01*
X0021619Y0258702D01*
X0021419Y0258659D01*
X0021219Y0258622D01*
X0021018Y0258590D01*
X0020816Y0258562D01*
X0020614Y0258540D01*
X0020411Y0258522D01*
X0020207Y0258510D01*
X0020004Y0258502D01*
X0019800Y0258500D01*
X0019596Y0258502D01*
X0019393Y0258510D01*
X0019189Y0258522D01*
X0018986Y0258540D01*
X0018784Y0258562D01*
X0018582Y0258590D01*
X0018381Y0258622D01*
X0018181Y0258659D01*
X0017981Y0258702D01*
X0017783Y0258749D01*
X0017586Y0258801D01*
X0017391Y0258857D01*
X0017196Y0258919D01*
X0017004Y0258985D01*
X0016813Y0259056D01*
X0016624Y0259132D01*
X0016436Y0259212D01*
X0016251Y0259297D01*
X0016068Y0259386D01*
X0015887Y0259480D01*
X0015709Y0259578D01*
X0015533Y0259681D01*
X0015360Y0259788D01*
X0015189Y0259899D01*
X0015021Y0260014D01*
X0014856Y0260133D01*
X0014694Y0260257D01*
X0014535Y0260384D01*
X0014379Y0260515D01*
X0014226Y0260650D01*
X0014077Y0260789D01*
X0013931Y0260931D01*
X0013789Y0261077D01*
X0013650Y0261226D01*
X0013515Y0261379D01*
X0013384Y0261535D01*
X0013257Y0261694D01*
X0013133Y0261856D01*
X0013014Y0262021D01*
X0012899Y0262189D01*
X0012788Y0262360D01*
X0012681Y0262533D01*
X0012578Y0262709D01*
X0012480Y0262887D01*
X0012386Y0263068D01*
X0012297Y0263251D01*
X0012212Y0263436D01*
X0012132Y0263624D01*
X0012056Y0263813D01*
X0011985Y0264004D01*
X0011919Y0264196D01*
X0011857Y0264391D01*
X0011801Y0264586D01*
X0011749Y0264783D01*
X0011702Y0264981D01*
X0011659Y0265181D01*
X0011622Y0265381D01*
X0011590Y0265582D01*
X0011562Y0265784D01*
X0011540Y0265986D01*
X0011522Y0266189D01*
X0011510Y0266393D01*
X0011502Y0266596D01*
X0011500Y0266800D01*
X0007800Y0242300D02*
X0215800Y0242300D01*
X0215800Y0291300D01*
X0007800Y0291300D01*
X0007800Y0242300D01*
X0157050Y0189803D02*
X0157050Y0186801D01*
X0157801Y0186050D01*
X0159302Y0186050D01*
X0160053Y0186801D01*
X0161654Y0186801D02*
X0161654Y0186050D01*
X0161654Y0186801D02*
X0164656Y0189803D01*
X0164656Y0190554D01*
X0161654Y0190554D01*
X0160053Y0189803D02*
X0159302Y0190554D01*
X0157801Y0190554D01*
X0157050Y0189803D01*
X0157801Y0150554D02*
X0157050Y0149803D01*
X0157050Y0146801D01*
X0157801Y0146050D01*
X0159302Y0146050D01*
X0160053Y0146801D01*
X0161654Y0146801D02*
X0161654Y0147551D01*
X0162405Y0148302D01*
X0163906Y0148302D01*
X0164656Y0147551D01*
X0164656Y0146801D01*
X0163906Y0146050D01*
X0162405Y0146050D01*
X0161654Y0146801D01*
X0162405Y0148302D02*
X0161654Y0149053D01*
X0161654Y0149803D01*
X0162405Y0150554D01*
X0163906Y0150554D01*
X0164656Y0149803D01*
X0164656Y0149053D01*
X0163906Y0148302D01*
X0160053Y0149803D02*
X0159302Y0150554D01*
X0157801Y0150554D01*
X0157801Y0120554D02*
X0157050Y0119803D01*
X0157050Y0116801D01*
X0157801Y0116050D01*
X0159302Y0116050D01*
X0160053Y0116801D01*
X0161654Y0116801D02*
X0162405Y0116050D01*
X0163906Y0116050D01*
X0164656Y0116801D01*
X0164656Y0117551D01*
X0163906Y0118302D01*
X0161654Y0118302D01*
X0161654Y0116801D01*
X0161654Y0118302D02*
X0163155Y0119803D01*
X0164656Y0120554D01*
X0160053Y0119803D02*
X0159302Y0120554D01*
X0157801Y0120554D01*
X0178546Y0114906D02*
X0178546Y0113405D01*
X0179297Y0112654D01*
X0179297Y0111053D02*
X0178546Y0110302D01*
X0178546Y0108801D01*
X0179297Y0108050D01*
X0182299Y0108050D01*
X0183050Y0108801D01*
X0183050Y0110302D01*
X0182299Y0111053D01*
X0183050Y0112654D02*
X0180047Y0115656D01*
X0179297Y0115656D01*
X0178546Y0114906D01*
X0183050Y0115656D02*
X0183050Y0112654D01*
X0201297Y0196842D02*
X0204299Y0196842D01*
X0205050Y0197593D01*
X0205050Y0199094D01*
X0204299Y0199845D01*
X0205050Y0201446D02*
X0205050Y0204449D01*
X0205050Y0202947D02*
X0200546Y0202947D01*
X0202047Y0201446D01*
X0201297Y0199845D02*
X0200546Y0199094D01*
X0200546Y0197593D01*
X0201297Y0196842D01*
X0195500Y0266800D02*
X0195502Y0267004D01*
X0195510Y0267207D01*
X0195522Y0267411D01*
X0195540Y0267614D01*
X0195562Y0267816D01*
X0195590Y0268018D01*
X0195622Y0268219D01*
X0195659Y0268419D01*
X0195702Y0268619D01*
X0195749Y0268817D01*
X0195801Y0269014D01*
X0195857Y0269209D01*
X0195919Y0269404D01*
X0195985Y0269596D01*
X0196056Y0269787D01*
X0196132Y0269976D01*
X0196212Y0270164D01*
X0196297Y0270349D01*
X0196386Y0270532D01*
X0196480Y0270713D01*
X0196578Y0270891D01*
X0196681Y0271067D01*
X0196788Y0271240D01*
X0196899Y0271411D01*
X0197014Y0271579D01*
X0197133Y0271744D01*
X0197257Y0271906D01*
X0197384Y0272065D01*
X0197515Y0272221D01*
X0197650Y0272374D01*
X0197789Y0272523D01*
X0197931Y0272669D01*
X0198077Y0272811D01*
X0198226Y0272950D01*
X0198379Y0273085D01*
X0198535Y0273216D01*
X0198694Y0273343D01*
X0198856Y0273467D01*
X0199021Y0273586D01*
X0199189Y0273701D01*
X0199360Y0273812D01*
X0199533Y0273919D01*
X0199709Y0274022D01*
X0199887Y0274120D01*
X0200068Y0274214D01*
X0200251Y0274303D01*
X0200436Y0274388D01*
X0200624Y0274468D01*
X0200813Y0274544D01*
X0201004Y0274615D01*
X0201196Y0274681D01*
X0201391Y0274743D01*
X0201586Y0274799D01*
X0201783Y0274851D01*
X0201981Y0274898D01*
X0202181Y0274941D01*
X0202381Y0274978D01*
X0202582Y0275010D01*
X0202784Y0275038D01*
X0202986Y0275060D01*
X0203189Y0275078D01*
X0203393Y0275090D01*
X0203596Y0275098D01*
X0203800Y0275100D01*
X0204004Y0275098D01*
X0204207Y0275090D01*
X0204411Y0275078D01*
X0204614Y0275060D01*
X0204816Y0275038D01*
X0205018Y0275010D01*
X0205219Y0274978D01*
X0205419Y0274941D01*
X0205619Y0274898D01*
X0205817Y0274851D01*
X0206014Y0274799D01*
X0206209Y0274743D01*
X0206404Y0274681D01*
X0206596Y0274615D01*
X0206787Y0274544D01*
X0206976Y0274468D01*
X0207164Y0274388D01*
X0207349Y0274303D01*
X0207532Y0274214D01*
X0207713Y0274120D01*
X0207891Y0274022D01*
X0208067Y0273919D01*
X0208240Y0273812D01*
X0208411Y0273701D01*
X0208579Y0273586D01*
X0208744Y0273467D01*
X0208906Y0273343D01*
X0209065Y0273216D01*
X0209221Y0273085D01*
X0209374Y0272950D01*
X0209523Y0272811D01*
X0209669Y0272669D01*
X0209811Y0272523D01*
X0209950Y0272374D01*
X0210085Y0272221D01*
X0210216Y0272065D01*
X0210343Y0271906D01*
X0210467Y0271744D01*
X0210586Y0271579D01*
X0210701Y0271411D01*
X0210812Y0271240D01*
X0210919Y0271067D01*
X0211022Y0270891D01*
X0211120Y0270713D01*
X0211214Y0270532D01*
X0211303Y0270349D01*
X0211388Y0270164D01*
X0211468Y0269976D01*
X0211544Y0269787D01*
X0211615Y0269596D01*
X0211681Y0269404D01*
X0211743Y0269209D01*
X0211799Y0269014D01*
X0211851Y0268817D01*
X0211898Y0268619D01*
X0211941Y0268419D01*
X0211978Y0268219D01*
X0212010Y0268018D01*
X0212038Y0267816D01*
X0212060Y0267614D01*
X0212078Y0267411D01*
X0212090Y0267207D01*
X0212098Y0267004D01*
X0212100Y0266800D01*
X0212098Y0266596D01*
X0212090Y0266393D01*
X0212078Y0266189D01*
X0212060Y0265986D01*
X0212038Y0265784D01*
X0212010Y0265582D01*
X0211978Y0265381D01*
X0211941Y0265181D01*
X0211898Y0264981D01*
X0211851Y0264783D01*
X0211799Y0264586D01*
X0211743Y0264391D01*
X0211681Y0264196D01*
X0211615Y0264004D01*
X0211544Y0263813D01*
X0211468Y0263624D01*
X0211388Y0263436D01*
X0211303Y0263251D01*
X0211214Y0263068D01*
X0211120Y0262887D01*
X0211022Y0262709D01*
X0210919Y0262533D01*
X0210812Y0262360D01*
X0210701Y0262189D01*
X0210586Y0262021D01*
X0210467Y0261856D01*
X0210343Y0261694D01*
X0210216Y0261535D01*
X0210085Y0261379D01*
X0209950Y0261226D01*
X0209811Y0261077D01*
X0209669Y0260931D01*
X0209523Y0260789D01*
X0209374Y0260650D01*
X0209221Y0260515D01*
X0209065Y0260384D01*
X0208906Y0260257D01*
X0208744Y0260133D01*
X0208579Y0260014D01*
X0208411Y0259899D01*
X0208240Y0259788D01*
X0208067Y0259681D01*
X0207891Y0259578D01*
X0207713Y0259480D01*
X0207532Y0259386D01*
X0207349Y0259297D01*
X0207164Y0259212D01*
X0206976Y0259132D01*
X0206787Y0259056D01*
X0206596Y0258985D01*
X0206404Y0258919D01*
X0206209Y0258857D01*
X0206014Y0258801D01*
X0205817Y0258749D01*
X0205619Y0258702D01*
X0205419Y0258659D01*
X0205219Y0258622D01*
X0205018Y0258590D01*
X0204816Y0258562D01*
X0204614Y0258540D01*
X0204411Y0258522D01*
X0204207Y0258510D01*
X0204004Y0258502D01*
X0203800Y0258500D01*
X0203596Y0258502D01*
X0203393Y0258510D01*
X0203189Y0258522D01*
X0202986Y0258540D01*
X0202784Y0258562D01*
X0202582Y0258590D01*
X0202381Y0258622D01*
X0202181Y0258659D01*
X0201981Y0258702D01*
X0201783Y0258749D01*
X0201586Y0258801D01*
X0201391Y0258857D01*
X0201196Y0258919D01*
X0201004Y0258985D01*
X0200813Y0259056D01*
X0200624Y0259132D01*
X0200436Y0259212D01*
X0200251Y0259297D01*
X0200068Y0259386D01*
X0199887Y0259480D01*
X0199709Y0259578D01*
X0199533Y0259681D01*
X0199360Y0259788D01*
X0199189Y0259899D01*
X0199021Y0260014D01*
X0198856Y0260133D01*
X0198694Y0260257D01*
X0198535Y0260384D01*
X0198379Y0260515D01*
X0198226Y0260650D01*
X0198077Y0260789D01*
X0197931Y0260931D01*
X0197789Y0261077D01*
X0197650Y0261226D01*
X0197515Y0261379D01*
X0197384Y0261535D01*
X0197257Y0261694D01*
X0197133Y0261856D01*
X0197014Y0262021D01*
X0196899Y0262189D01*
X0196788Y0262360D01*
X0196681Y0262533D01*
X0196578Y0262709D01*
X0196480Y0262887D01*
X0196386Y0263068D01*
X0196297Y0263251D01*
X0196212Y0263436D01*
X0196132Y0263624D01*
X0196056Y0263813D01*
X0195985Y0264004D01*
X0195919Y0264196D01*
X0195857Y0264391D01*
X0195801Y0264586D01*
X0195749Y0264783D01*
X0195702Y0264981D01*
X0195659Y0265181D01*
X0195622Y0265381D01*
X0195590Y0265582D01*
X0195562Y0265784D01*
X0195540Y0265986D01*
X0195522Y0266189D01*
X0195510Y0266393D01*
X0195502Y0266596D01*
X0195500Y0266800D01*
D14*
X0149300Y0064800D02*
X0116800Y0064800D01*
X0116800Y0028800D01*
X0149300Y0028800D01*
X0149300Y0064800D01*
D15*
X0164050Y0056800D03*
X0164050Y0046800D03*
X0164050Y0036800D03*
D16*
X0157300Y0036800D03*
X0157300Y0046800D03*
X0157300Y0056800D03*
D17*
X0155412Y0024955D02*
X0153310Y0024955D01*
X0152259Y0023904D01*
X0152259Y0019701D01*
X0153310Y0018650D01*
X0155412Y0018650D01*
X0156463Y0019701D01*
X0158704Y0018650D02*
X0162908Y0018650D01*
X0160806Y0018650D02*
X0160806Y0024955D01*
X0158704Y0022854D01*
X0156463Y0023904D02*
X0155412Y0024955D01*
X0150064Y0024955D02*
X0147962Y0024955D01*
X0149013Y0024955D02*
X0149013Y0018650D01*
X0147962Y0018650D02*
X0150064Y0018650D01*
D18*
X0066901Y0072000D02*
X0064599Y0074302D01*
X0063831Y0073535D02*
X0066901Y0076604D01*
X0063831Y0076604D02*
X0063831Y0072000D01*
X0062297Y0072767D02*
X0061529Y0072000D01*
X0059995Y0072000D01*
X0059227Y0072767D01*
X0059227Y0075837D01*
X0059995Y0076604D01*
X0061529Y0076604D01*
X0062297Y0075837D01*
X0057693Y0075069D02*
X0057693Y0072000D01*
X0057693Y0074302D02*
X0054624Y0074302D01*
X0054624Y0075069D02*
X0056158Y0076604D01*
X0057693Y0075069D01*
X0054624Y0075069D02*
X0054624Y0072000D01*
X0052322Y0072767D02*
X0052322Y0076604D01*
X0053089Y0076604D02*
X0051554Y0076604D01*
X0048485Y0075837D02*
X0048485Y0074302D01*
X0047718Y0073535D01*
X0045416Y0073535D01*
X0046950Y0073535D02*
X0048485Y0072000D01*
X0050020Y0072767D02*
X0050787Y0072000D01*
X0051554Y0072000D01*
X0052322Y0072767D01*
X0048485Y0075837D02*
X0047718Y0076604D01*
X0045416Y0076604D01*
X0045416Y0072000D01*
X0043881Y0072000D02*
X0040812Y0072000D01*
X0040812Y0076604D01*
X0043881Y0076604D01*
X0042346Y0074302D02*
X0040812Y0074302D01*
X0039277Y0072000D02*
X0039277Y0076604D01*
X0037742Y0073535D02*
X0039277Y0072000D01*
X0037742Y0073535D02*
X0036208Y0072000D01*
X0036208Y0076604D01*
X0034673Y0075837D02*
X0033906Y0076604D01*
X0032371Y0076604D01*
X0031604Y0075837D01*
X0031604Y0072767D01*
X0032371Y0072000D01*
X0033906Y0072000D01*
X0034673Y0072767D01*
X0034673Y0075837D01*
X0030069Y0075837D02*
X0030069Y0074302D01*
X0029302Y0073535D01*
X0027000Y0073535D01*
X0027000Y0072000D02*
X0027000Y0076604D01*
X0029302Y0076604D01*
X0030069Y0075837D01*
X0029634Y0100500D02*
X0032036Y0104103D01*
X0033317Y0102902D02*
X0034518Y0104103D01*
X0034518Y0100500D01*
X0033317Y0100500D02*
X0035719Y0100500D01*
X0032036Y0100500D02*
X0029634Y0104103D01*
X0042396Y0252000D02*
X0045465Y0252000D01*
X0043931Y0252000D02*
X0043931Y0256604D01*
X0042396Y0255069D01*
X0053896Y0255837D02*
X0054663Y0256604D01*
X0056198Y0256604D01*
X0056965Y0255837D01*
X0056965Y0255069D01*
X0053896Y0252000D01*
X0056965Y0252000D01*
X0064896Y0252767D02*
X0065663Y0252000D01*
X0067198Y0252000D01*
X0067965Y0252767D01*
X0067965Y0253535D01*
X0067198Y0254302D01*
X0066431Y0254302D01*
X0067198Y0254302D02*
X0067965Y0255069D01*
X0067965Y0255837D01*
X0067198Y0256604D01*
X0065663Y0256604D01*
X0064896Y0255837D01*
X0075896Y0254302D02*
X0078965Y0254302D01*
X0078198Y0252000D02*
X0078198Y0256604D01*
X0075896Y0254302D01*
X0086896Y0254302D02*
X0088431Y0255069D01*
X0089198Y0255069D01*
X0089965Y0254302D01*
X0089965Y0252767D01*
X0089198Y0252000D01*
X0087663Y0252000D01*
X0086896Y0252767D01*
X0086896Y0254302D02*
X0086896Y0256604D01*
X0089965Y0256604D01*
X0097896Y0254302D02*
X0100198Y0254302D01*
X0100965Y0253535D01*
X0100965Y0252767D01*
X0100198Y0252000D01*
X0098663Y0252000D01*
X0097896Y0252767D01*
X0097896Y0254302D01*
X0099431Y0255837D01*
X0100965Y0256604D01*
X0108896Y0256604D02*
X0111965Y0256604D01*
X0111965Y0255837D01*
X0108896Y0252767D01*
X0108896Y0252000D01*
X0120396Y0252767D02*
X0120396Y0253535D01*
X0121163Y0254302D01*
X0122698Y0254302D01*
X0123465Y0253535D01*
X0123465Y0252767D01*
X0122698Y0252000D01*
X0121163Y0252000D01*
X0120396Y0252767D01*
X0121163Y0254302D02*
X0120396Y0255069D01*
X0120396Y0255837D01*
X0121163Y0256604D01*
X0122698Y0256604D01*
X0123465Y0255837D01*
X0123465Y0255069D01*
X0122698Y0254302D01*
X0130896Y0255069D02*
X0131663Y0254302D01*
X0133965Y0254302D01*
X0133965Y0252767D02*
X0133965Y0255837D01*
X0133198Y0256604D01*
X0131663Y0256604D01*
X0130896Y0255837D01*
X0130896Y0255069D01*
X0130896Y0252767D02*
X0131663Y0252000D01*
X0133198Y0252000D01*
X0133965Y0252767D01*
X0139292Y0252000D02*
X0142361Y0252000D01*
X0140827Y0252000D02*
X0140827Y0256604D01*
X0139292Y0255069D01*
X0143896Y0255837D02*
X0143896Y0252767D01*
X0146965Y0255837D01*
X0146965Y0252767D01*
X0146198Y0252000D01*
X0144663Y0252000D01*
X0143896Y0252767D01*
X0143896Y0255837D02*
X0144663Y0256604D01*
X0146198Y0256604D01*
X0146965Y0255837D01*
X0149292Y0255069D02*
X0150827Y0256604D01*
X0150827Y0252000D01*
X0152361Y0252000D02*
X0149292Y0252000D01*
X0153896Y0252000D02*
X0156965Y0252000D01*
X0155431Y0252000D02*
X0155431Y0256604D01*
X0153896Y0255069D01*
X0161292Y0255069D02*
X0162827Y0256604D01*
X0162827Y0252000D01*
X0164361Y0252000D02*
X0161292Y0252000D01*
X0165896Y0252000D02*
X0168965Y0255069D01*
X0168965Y0255837D01*
X0168198Y0256604D01*
X0166663Y0256604D01*
X0165896Y0255837D01*
X0165896Y0252000D02*
X0168965Y0252000D01*
X0172292Y0252000D02*
X0175361Y0252000D01*
X0173827Y0252000D02*
X0173827Y0256604D01*
X0172292Y0255069D01*
X0176896Y0255837D02*
X0177663Y0256604D01*
X0179198Y0256604D01*
X0179965Y0255837D01*
X0179965Y0255069D01*
X0179198Y0254302D01*
X0179965Y0253535D01*
X0179965Y0252767D01*
X0179198Y0252000D01*
X0177663Y0252000D01*
X0176896Y0252767D01*
X0178431Y0254302D02*
X0179198Y0254302D01*
X0173698Y0277000D02*
X0172163Y0277000D01*
X0171396Y0277767D01*
X0171396Y0279302D02*
X0172931Y0280069D01*
X0173698Y0280069D01*
X0174465Y0279302D01*
X0174465Y0277767D01*
X0173698Y0277000D01*
X0171396Y0279302D02*
X0171396Y0281604D01*
X0174465Y0281604D01*
X0169861Y0280837D02*
X0169861Y0280069D01*
X0166792Y0277000D01*
X0169861Y0277000D01*
X0169861Y0280837D02*
X0169094Y0281604D01*
X0167559Y0281604D01*
X0166792Y0280837D01*
X0163965Y0279302D02*
X0160896Y0279302D01*
X0163198Y0281604D01*
X0163198Y0277000D01*
X0159361Y0277000D02*
X0156292Y0277000D01*
X0159361Y0280069D01*
X0159361Y0280837D01*
X0158594Y0281604D01*
X0157059Y0281604D01*
X0156292Y0280837D01*
X0152965Y0280837D02*
X0152965Y0280069D01*
X0152198Y0279302D01*
X0152965Y0278535D01*
X0152965Y0277767D01*
X0152198Y0277000D01*
X0150663Y0277000D01*
X0149896Y0277767D01*
X0148361Y0277000D02*
X0145292Y0277000D01*
X0148361Y0280069D01*
X0148361Y0280837D01*
X0147594Y0281604D01*
X0146059Y0281604D01*
X0145292Y0280837D01*
X0141965Y0280837D02*
X0141965Y0280069D01*
X0138896Y0277000D01*
X0141965Y0277000D01*
X0141965Y0280837D02*
X0141198Y0281604D01*
X0139663Y0281604D01*
X0138896Y0280837D01*
X0137361Y0280837D02*
X0136594Y0281604D01*
X0135059Y0281604D01*
X0134292Y0280837D01*
X0137361Y0280837D02*
X0137361Y0280069D01*
X0134292Y0277000D01*
X0137361Y0277000D01*
X0129965Y0277000D02*
X0126896Y0277000D01*
X0125361Y0277000D02*
X0122292Y0277000D01*
X0125361Y0280069D01*
X0125361Y0280837D01*
X0124594Y0281604D01*
X0123059Y0281604D01*
X0122292Y0280837D01*
X0119465Y0280837D02*
X0119465Y0277767D01*
X0118698Y0277000D01*
X0117163Y0277000D01*
X0116396Y0277767D01*
X0119465Y0280837D01*
X0118698Y0281604D01*
X0117163Y0281604D01*
X0116396Y0280837D01*
X0116396Y0277767D01*
X0114861Y0277000D02*
X0111792Y0277000D01*
X0114861Y0280069D01*
X0114861Y0280837D01*
X0114094Y0281604D01*
X0112559Y0281604D01*
X0111792Y0280837D01*
X0108465Y0280837D02*
X0108465Y0277767D01*
X0107698Y0277000D01*
X0106163Y0277000D01*
X0105396Y0277767D01*
X0103861Y0277000D02*
X0100792Y0277000D01*
X0102327Y0277000D02*
X0102327Y0281604D01*
X0100792Y0280069D01*
X0097465Y0280069D02*
X0096698Y0279302D01*
X0095163Y0279302D01*
X0094396Y0280069D01*
X0094396Y0280837D01*
X0095163Y0281604D01*
X0096698Y0281604D01*
X0097465Y0280837D01*
X0097465Y0280069D01*
X0096698Y0279302D02*
X0097465Y0278535D01*
X0097465Y0277767D01*
X0096698Y0277000D01*
X0095163Y0277000D01*
X0094396Y0277767D01*
X0094396Y0278535D01*
X0095163Y0279302D01*
X0092861Y0277000D02*
X0089792Y0277000D01*
X0091327Y0277000D02*
X0091327Y0281604D01*
X0089792Y0280069D01*
X0086465Y0280837D02*
X0083396Y0277767D01*
X0083396Y0277000D01*
X0081861Y0277000D02*
X0078792Y0277000D01*
X0080327Y0277000D02*
X0080327Y0281604D01*
X0078792Y0280069D01*
X0075465Y0278535D02*
X0074698Y0279302D01*
X0072396Y0279302D01*
X0072396Y0277767D01*
X0073163Y0277000D01*
X0074698Y0277000D01*
X0075465Y0277767D01*
X0075465Y0278535D01*
X0073931Y0280837D02*
X0072396Y0279302D01*
X0073931Y0280837D02*
X0075465Y0281604D01*
X0069327Y0281604D02*
X0069327Y0277000D01*
X0070861Y0277000D02*
X0067792Y0277000D01*
X0067792Y0280069D02*
X0069327Y0281604D01*
X0064465Y0281604D02*
X0061396Y0281604D01*
X0061396Y0279302D01*
X0062931Y0280069D01*
X0063698Y0280069D01*
X0064465Y0279302D01*
X0064465Y0277767D01*
X0063698Y0277000D01*
X0062163Y0277000D01*
X0061396Y0277767D01*
X0059861Y0277000D02*
X0056792Y0277000D01*
X0058327Y0277000D02*
X0058327Y0281604D01*
X0056792Y0280069D01*
X0053465Y0279302D02*
X0050396Y0279302D01*
X0052698Y0281604D01*
X0052698Y0277000D01*
X0048861Y0277000D02*
X0045792Y0277000D01*
X0047327Y0277000D02*
X0047327Y0281604D01*
X0045792Y0280069D01*
X0083396Y0281604D02*
X0086465Y0281604D01*
X0086465Y0280837D01*
X0105396Y0280837D02*
X0105396Y0280069D01*
X0106163Y0279302D01*
X0108465Y0279302D01*
X0108465Y0280837D02*
X0107698Y0281604D01*
X0106163Y0281604D01*
X0105396Y0280837D01*
X0126896Y0280069D02*
X0128431Y0281604D01*
X0128431Y0277000D01*
X0149896Y0280837D02*
X0150663Y0281604D01*
X0152198Y0281604D01*
X0152965Y0280837D01*
X0152198Y0279302D02*
X0151431Y0279302D01*
D19*
X0058729Y0067154D02*
X0052430Y0067154D01*
X0058729Y0067154D02*
X0058729Y0060855D01*
X0058729Y0042154D02*
X0058729Y0010855D01*
X0024871Y0010855D01*
X0024871Y0067154D01*
X0031170Y0067154D01*
D20*
X0074834Y0159450D02*
X0076402Y0159450D01*
X0077186Y0160234D01*
X0077186Y0164154D01*
X0078654Y0162586D02*
X0080222Y0164154D01*
X0080222Y0159450D01*
X0078654Y0159450D02*
X0081790Y0159450D01*
X0074834Y0159450D02*
X0074050Y0160234D01*
X0074050Y0164154D01*
X0072786Y0210934D02*
X0069650Y0214070D01*
X0069650Y0212502D02*
X0072786Y0212502D01*
X0072786Y0214070D02*
X0069650Y0210934D01*
X0071218Y0210934D02*
X0071218Y0214070D01*
D21*
X0041800Y0175550D02*
X0038050Y0175550D01*
X0038050Y0216800D01*
X0015550Y0216800D01*
X0015550Y0106800D01*
X0038050Y0106800D01*
X0038050Y0148050D01*
X0041800Y0148050D01*
X0041800Y0175550D01*
M02*
